<?xml version="1.0" standalone="no"?>
<!DOCTYPE svg PUBLIC "-//W3C//DTD SVG 1.1//EN" "http://www.w3.org/Graphics/SVG/1.1/DTD/svg11.dtd" >
<svg xmlns="http://www.w3.org/2000/svg">
<metadata></metadata>
<defs>
<font id="tm_sansregular" horiz-adv-x="1150" >
<font-face units-per-em="2048" ascent="1495" descent="-553" />
<missing-glyph horiz-adv-x="512" />
<glyph unicode="&#xfb01;" horiz-adv-x="1050" d="M55 817v135h135v213q0 156 76.5 238t225.5 82q63 0 131 -21l-25 -131q-49 17 -96 17q-73 0 -110.5 -44.5t-37.5 -119.5v-234h215v-135h-215v-817h-164v817h-135zM733 1178v188h199v-188h-199zM752 0v952h161v-952h-161z" />
<glyph unicode="&#xfb02;" horiz-adv-x="1058" d="M55 817v135h135v213q0 156 76.5 238t225.5 82q63 0 131 -21l-25 -131q-49 17 -96 17q-73 0 -110.5 -44.5t-37.5 -119.5v-234h215v-135h-215v-817h-164v817h-135zM760 0v1477h162v-1477h-162z" />
<glyph unicode="&#xfb03;" horiz-adv-x="1613" d="M55 817v135h135v213q0 156 76.5 238t225.5 82q63 0 131 -21l-25 -131q-49 17 -96 17q-73 0 -110.5 -44.5t-37.5 -119.5v-234h398v213q0 156 76.5 238t224.5 82q63 0 131 -21l-25 -131q-49 17 -96 17q-73 0 -110.5 -44.5t-37.5 -119.5v-234h215v-135h-215v-817h-163v817 h-398v-817h-164v817h-135zM1296 1178v188h199v-188h-199zM1315 0v952h162v-952h-162z" />
<glyph unicode="&#xfb04;" horiz-adv-x="1611" d="M55 817v135h135v213q0 156 76.5 238t225.5 82q63 0 131 -21l-25 -131q-49 17 -96 17q-73 0 -110.5 -44.5t-37.5 -119.5v-234h398v213q0 156 76.5 238t224.5 82q63 0 131 -21l-25 -131q-49 17 -96 17q-73 0 -110.5 -44.5t-37.5 -119.5v-234h215v-135h-215v-817h-163v817 h-398v-817h-164v817h-135zM1313 0v1477h162v-1477h-162z" />
<glyph horiz-adv-x="2048" />
<glyph horiz-adv-x="2048" />
<glyph unicode="&#xd;" horiz-adv-x="2048" />
<glyph unicode=" "  horiz-adv-x="512" />
<glyph unicode="&#x09;" horiz-adv-x="512" />
<glyph unicode="&#xa0;" horiz-adv-x="512" />
<glyph unicode="!" horiz-adv-x="468" d="M145 0v180h181v-180h-181zM145 1397h181l-17 -1010h-147z" />
<glyph unicode="&#x22;" horiz-adv-x="735" d="M123 1477h162l-21 -445h-123zM451 1477h161l-20 -445h-125z" />
<glyph unicode="#" horiz-adv-x="1208" d="M29 410l22 110h258l78 348h-264l20 107h267l88 422h118l-92 -422h275l92 422h117l-90 -422h262l-25 -107h-260l-76 -348h264l-20 -110h-266l-88 -410h-119l90 410h-274l-93 -410h-114l88 410h-258zM424 520h278l76 348h-276z" />
<glyph unicode="$" d="M160 250l131 88q72 -139 223 -160v514q-190 52 -270 134.5t-80 217.5q0 121 97.5 209t252.5 103v125h137v-125q183 -25 293 -168l-125 -92q-64 100 -168 125v-408q202 -64 285.5 -160t83.5 -239q0 -134 -97 -241t-272 -128v-151h-137v149q-249 21 -354 207zM328 1044 q0 -75 40 -114.5t146 -75.5v369q-87 -13 -136.5 -61.5t-49.5 -117.5zM651 180q98 18 150.5 83t52.5 143q0 95 -47.5 151.5t-155.5 93.5v-471z" />
<glyph unicode="%" horiz-adv-x="1542" d="M98 1063q0 98 27 173t72.5 118t98 64.5t110.5 21.5q54 0 102.5 -19t91.5 -60t68.5 -116.5t25.5 -177.5q0 -90 -20 -160t-50.5 -111.5t-71.5 -68.5t-78 -37t-75 -10q-56 0 -106.5 19t-95.5 61t-72 119.5t-27 183.5zM231 0l928 1397h158l-928 -1397h-158zM242 1065 q0 -252 157 -252q66 0 109 61t43 189q0 121 -39.5 182.5t-114.5 61.5q-68 0 -111.5 -59.5t-43.5 -182.5zM848 338q0 98 26.5 172.5t71.5 117.5t97 64t110 21q43 0 83 -11t78.5 -38.5t66.5 -68.5t45.5 -106t17.5 -147q0 -90 -20 -160.5t-50.5 -112t-71.5 -68.5t-78.5 -36.5 t-76.5 -9.5q-45 0 -85.5 11t-80.5 39t-68.5 70.5t-46.5 110t-18 152.5zM991 340q0 -252 156 -252q68 0 110.5 59.5t42.5 190.5q0 242 -155 242q-67 0 -110.5 -58.5t-43.5 -181.5z" />
<glyph unicode="&#x26;" horiz-adv-x="1341" d="M78 383q0 262 319 420q-127 186 -127 325q0 130 90 220t250 90q138 0 236 -80.5t98 -220.5q0 -39 -10 -74t-24.5 -62t-43 -56t-51 -48t-64.5 -45.5t-68.5 -41.5t-76.5 -42l322 -426q73 137 73 326v24h156v-18q0 -118 -41.5 -239.5t-101.5 -198.5q60 -73 98 -101.5 t76 -28.5q30 0 59 11l23 -127q-44 -21 -107 -21t-118 33t-127 121q-80 -73 -174.5 -116.5t-223.5 -43.5q-107 0 -193 35.5t-139.5 95t-81.5 134t-28 155.5zM233 383q0 -115 80.5 -193.5t208.5 -78.5q107 0 186.5 33t127.5 81l-361 471q-116 -61 -179 -137t-63 -176z M426 1118q0 -66 23 -116.5t79 -129.5q130 61 195 122t65 143q0 67 -46.5 113t-133.5 46q-90 0 -136 -52.5t-46 -125.5z" />
<glyph unicode="'" horiz-adv-x="407" d="M123 1477h162l-21 -445h-123z" />
<glyph unicode="(" horiz-adv-x="655" d="M145 539q0 265 77.5 522t238.5 461h162q-161 -204 -238.5 -461t-77.5 -522q0 -261 78 -520t238 -459h-162q-160 200 -238 459t-78 520z" />
<glyph unicode=")" horiz-adv-x="655" d="M33 -440q160 200 237.5 458t77.5 523q0 264 -77.5 522.5t-237.5 458.5h162q160 -200 237.5 -458.5t77.5 -522.5q0 -265 -77.5 -523t-237.5 -458h-162z" />
<glyph unicode="*" horiz-adv-x="815" d="M20 1141l50 145l274 -104l-14 295h155l-14 -295l274 104l50 -145l-287 -78l184 -229l-123 -91l-161 248l-162 -248l-123 91l184 229z" />
<glyph unicode="+" horiz-adv-x="1376" d="M160 465v151h450v469h152v-469h452v-151h-452v-465h-152v465h-450z" />
<glyph unicode="," horiz-adv-x="468" d="M123 0v225h225v-123q0 -68 -10 -127.5t-30 -109t-33.5 -76.5t-36.5 -65h-113q66 102 82 276h-84z" />
<glyph unicode="-" horiz-adv-x="964" d="M160 459v164h659v-164h-659z" />
<glyph unicode="." horiz-adv-x="468" d="M123 0v225h225v-225h-225z" />
<glyph unicode="/" horiz-adv-x="735" d="M-41 -233l580 1708h163l-581 -1708h-162z" />
<glyph unicode="0" d="M74 707q0 130 20.5 240t57 189t84 139t105 96t117 53.5t122.5 17.5q74 0 141.5 -21.5t133.5 -74.5t114.5 -133.5t78 -208.5t29.5 -289q0 -128 -17.5 -236.5t-47 -185t-70.5 -137t-85 -97.5t-94 -61t-95 -33.5t-90 -9.5q-52 0 -101.5 10.5t-100.5 36t-94.5 64.5t-82.5 99 t-66 136t-43 180t-16 226zM250 713q0 -313 87.5 -460t244.5 -147q52 0 97.5 19.5t87 65t71.5 113.5t47.5 171t17.5 232q0 291 -85 437t-243 146q-54 0 -101.5 -19.5t-89 -63t-71 -109.5t-46.5 -164t-17 -221z" />
<glyph unicode="1" d="M307 1241v156h357v-1397h-168v1241h-189z" />
<glyph unicode="2" d="M168 0v156l448 497q105 117 157 210t52 194t-62 167t-173 66q-174 0 -258 -205l-154 78q127 279 412 279q100 0 180 -30.5t129.5 -83t75.5 -117.5t26 -138q0 -137 -66 -252.5t-198 -261.5l-366 -403h655v-156h-858z" />
<glyph unicode="3" d="M158 254l164 74q40 -115 106.5 -167t177.5 -52q120 0 197.5 79.5t77.5 196.5q0 122 -79.5 205.5t-242.5 83.5h-78v155h68q125 0 201.5 66t76.5 182q0 89 -56.5 153t-166.5 64q-96 0 -155.5 -42t-102.5 -140l-153 78q63 130 160.5 193t250.5 63q180 0 290 -103t110 -258 q0 -123 -74 -204t-187 -113v-4q134 -22 223 -119.5t89 -255.5q0 -87 -29 -163.5t-84.5 -137t-145 -96t-200.5 -35.5q-322 0 -438 297z" />
<glyph unicode="4" d="M80 336v145l651 916h160v-905h178v-156h-178v-336h-168v336h-643zM260 492h463v505q0 45 1 87.5t1 68.5h-6q-6 -9 -21 -35t-31 -50t-44 -62z" />
<glyph unicode="5" d="M115 227l159 74q37 -97 109.5 -144.5t187.5 -47.5q129 0 216 86t87 223q0 153 -83 233t-230 80q-183 0 -264 -131h-168l129 797h696v-156h-553l-67 -414q97 62 227 62q223 0 356.5 -124.5t133.5 -342.5q0 -204 -137 -335.5t-343 -131.5q-180 0 -291.5 67.5t-164.5 204.5z " />
<glyph unicode="6" d="M66 457q0 111 37 203t110 192l395 545h189l-334 -461q61 20 147 20q134 0 242.5 -66.5t169.5 -180.5t61 -252q0 -136 -67 -251.5t-184.5 -183t-258.5 -67.5q-217 0 -362 143t-145 359zM242 455q0 -149 94.5 -249t236.5 -100q143 0 238.5 100t95.5 249q0 150 -92.5 251 t-241.5 101q-148 0 -239.5 -98.5t-91.5 -253.5z" />
<glyph unicode="7" d="M168 1241v156h858v-144l-606 -1253h-184l612 1241h-680z" />
<glyph unicode="8" d="M117 373q0 270 256 372v5q-104 43 -158.5 124.5t-54.5 194.5q0 156 116.5 264.5t301.5 108.5q183 0 298 -108.5t115 -264.5q0 -119 -56 -202.5t-151 -116.5v-5q123 -44 186.5 -137.5t63.5 -224.5q0 -87 -28.5 -162.5t-83 -135t-143.5 -94t-201 -34.5t-201.5 34 t-145.5 92.5t-85 132.5t-29 157zM291 385q0 -122 79.5 -199t207.5 -77t205 70.5t77 205.5q0 124 -78.5 202.5t-201.5 78.5q-127 0 -208 -79t-81 -202zM336 1059q0 -104 71 -173t166 -69q110 0 176 66.5t66 175.5q0 103 -67 165t-173 62q-100 0 -169.5 -63t-69.5 -164z" />
<glyph unicode="9" d="M68 940q0 136 67 251.5t184.5 183t258.5 67.5q217 0 362 -143t145 -359q0 -111 -37 -203t-110 -192l-395 -545h-189l344 465q-61 -25 -157 -25q-133 0 -242 66.5t-170 181t-61 252.5zM244 942q0 -150 92.5 -251t241.5 -101q148 0 239.5 98.5t91.5 253.5 q0 149 -94.5 248.5t-236.5 99.5q-144 0 -239 -99t-95 -249z" />
<glyph unicode=":" horiz-adv-x="468" d="M123 0v225h225v-225h-225zM123 721v225h225v-225h-225z" />
<glyph unicode=";" horiz-adv-x="468" d="M123 0v225h225v-123q0 -68 -10 -127.5t-30 -109t-33.5 -76.5t-36.5 -65h-113q66 102 82 276h-84zM123 721v225h225v-225h-225z" />
<glyph unicode="&#x3c;" horiz-adv-x="1376" d="M162 479v129l1050 477v-167l-839 -373v-4l839 -371v-170z" />
<glyph unicode="=" horiz-adv-x="1376" d="M156 233v152h1063v-152h-1063zM156 702v150h1063v-150h-1063z" />
<glyph unicode="&#x3e;" horiz-adv-x="1376" d="M162 0v170l839 369v6l-839 373v167l1050 -479v-129z" />
<glyph unicode="?" horiz-adv-x="890" d="M33 1044q4 176 123 287t295 111q99 0 178 -30.5t128 -83t75 -117.5t26 -138q0 -114 -47.5 -203t-169.5 -211q-66 -66 -92.5 -126t-26.5 -146h-149q0 112 30 192t105 162q105 112 139.5 178t34.5 154q0 90 -64 153.5t-174 63.5q-99 0 -166 -66.5t-67 -179.5h-178zM356 0 v180h181v-180h-181z" />
<glyph unicode="@" horiz-adv-x="1943" d="M141 592q0 174 63 330t174 271t272 182t347 67q170 0 308 -41.5t228.5 -110.5t152 -162.5t88 -193t26.5 -205.5q0 -237 -112 -391t-277 -154q-100 0 -160 46.5t-71 131.5h-11q-43 -79 -126.5 -128.5t-161.5 -49.5q-147 0 -234.5 107t-87.5 280q0 131 51 245t146.5 185.5 t214.5 71.5q78 0 143.5 -39.5t106.5 -111.5h2l22 129h137l-82 -531q-8 -36 -8 -96q0 -57 32.5 -91t98.5 -34q100 0 167 120t67 300q0 286 -173 447t-495 161q-207 0 -369.5 -101.5t-248.5 -268.5t-86 -367q0 -297 187.5 -479.5t504.5 -182.5q124 0 234 20.5t180 53.5 l45 -100q-184 -88 -475 -88q-179 0 -331 55t-260 154.5t-168.5 246t-60.5 322.5zM702 567q0 -121 53.5 -194.5t149.5 -73.5q82 0 149 61t101.5 151.5t34.5 186.5q0 124 -54 192t-153 68q-89 0 -155 -59.5t-96 -146.5t-30 -185z" />
<glyph unicode="A" horiz-adv-x="1302" d="M14 0l570 1397h151l553 -1397h-186l-150 397h-606l-151 -397h-181zM406 549h489l-141 373q-65 169 -97 282h-8q-51 -162 -100 -284z" />
<glyph unicode="B" horiz-adv-x="1105" d="M152 0v1397h329q215 0 336 -96t121 -261q0 -114 -63 -187.5t-164 -109.5v-4q149 -24 228 -120.5t79 -233.5q0 -96 -36.5 -171t-100.5 -121t-147 -69.5t-181 -23.5h-401zM322 156h231q142 0 215.5 64.5t73.5 176.5q0 118 -79 183t-226 65h-215v-489zM322 801h172 q126 0 198 62t72 163q0 109 -77.5 162t-205.5 53h-159v-440z" />
<glyph unicode="C" horiz-adv-x="1400" d="M78 702q0 158 55.5 296t151.5 235t229.5 153t284.5 56q343 0 538 -234l-125 -112q-62 88 -170.5 141t-244.5 53q-106 0 -203 -39t-173 -111t-121.5 -186t-45.5 -254q0 -165 69.5 -301t194.5 -214.5t281 -78.5q134 0 240.5 53t174.5 146l125 -112q-199 -238 -540 -238 q-159 0 -294 57t-228.5 156t-146 237t-52.5 297z" />
<glyph unicode="D" horiz-adv-x="1443" d="M152 0v1397h452q148 0 272.5 -36t214 -100t152 -151.5t93 -191.5t30.5 -220q0 -142 -51.5 -268t-146.5 -222t-242 -152t-326 -56h-448zM322 156h276q143 0 257.5 42.5t186.5 117t110 172t38 210.5q0 245 -155.5 394t-432.5 149h-280v-1085z" />
<glyph unicode="E" horiz-adv-x="1071" d="M152 0v1397h766v-156h-596v-440h573v-156h-573v-489h618v-156h-788z" />
<glyph unicode="F" horiz-adv-x="1013" d="M152 0v1397h766v-156h-596v-463h573v-155h-573v-623h-170z" />
<glyph unicode="G" horiz-adv-x="1589" d="M78 698q0 149 55.5 286t150.5 237.5t230.5 160.5t288.5 60q438 0 633 -332l-150 -94q-143 274 -483 274q-125 0 -229.5 -47t-174 -126.5t-107.5 -185.5t-38 -224q0 -270 159.5 -435.5t401.5 -165.5q213 0 354 136.5t162 347.5h-557v155h737v-18q0 -221 -85 -395.5 t-248 -275.5t-377 -101q-158 0 -294.5 61t-229.5 163.5t-146 237.5t-53 281z" />
<glyph unicode="H" horiz-adv-x="1411" d="M152 0v1397h170v-596h768v596h170v-1397h-170v645h-768v-645h-170z" />
<glyph unicode="I" horiz-adv-x="473" d="M152 0v1397h170v-1397h-170z" />
<glyph unicode="J" horiz-adv-x="706" d="M12 8l54 144q62 -41 147 -41q102 0 149.5 56t47.5 191v1039h168v-1039q0 -197 -95.5 -298t-269.5 -101q-115 0 -201 49z" />
<glyph unicode="K" horiz-adv-x="1181" d="M152 0v1397h170v-602l587 602h226l-648 -662l717 -735h-225l-657 674v-674h-170z" />
<glyph unicode="L" horiz-adv-x="968" d="M152 0v1397h170v-1241h618v-156h-788z" />
<glyph unicode="M" horiz-adv-x="1669" d="M86 0l162 1397h207l303 -899q48 -139 76 -256h8q23 99 78 256l305 899h205l153 -1397h-166l-80 815q-28 304 -32 371h-7q-71 -234 -118 -373l-273 -813h-147l-273 836q-90 272 -112 350h-8q-11 -163 -31 -348l-86 -838h-164z" />
<glyph unicode="N" horiz-adv-x="1372" d="M152 0v1397h159l455 -672q211 -308 295 -459h4q-4 160 -4 297v834h160v-1397h-160l-455 672q-238 349 -295 456h-4q4 -152 4 -292v-836h-159z" />
<glyph unicode="O" horiz-adv-x="1636" d="M78 698q0 148 55.5 284t152 237.5t236 162t297.5 60.5q134 0 252.5 -39.5t206.5 -110t152 -163.5t96.5 -203.5t32.5 -227.5q0 -152 -57 -289t-155 -236.5t-236 -158.5t-292 -59q-124 0 -231.5 31t-187.5 85t-142.5 125.5t-101 155t-58.5 171t-20 175.5zM254 698 q0 -166 74 -302t203 -213t286 -77t286.5 77t204 213t74.5 302q0 167 -70.5 302t-200 212.5t-294.5 77.5q-158 0 -286.5 -75.5t-202.5 -211.5t-74 -305z" />
<glyph unicode="P" horiz-adv-x="1105" d="M152 0v1397h405q235 0 373.5 -108t138.5 -322q0 -208 -129.5 -321.5t-396.5 -113.5h-221v-532h-170zM322 686h219q100 0 171 21t110 60.5t56 87t17 108.5q0 129 -83.5 203.5t-256.5 74.5h-233v-555z" />
<glyph unicode="Q" horiz-adv-x="1636" d="M78 698q0 148 55.5 284t152 237.5t236 162t297.5 60.5q134 0 252.5 -39.5t206.5 -110t152 -163.5t96.5 -203.5t32.5 -227.5q0 -168 -68.5 -316t-190.5 -251l189 -225l-131 -109l-199 240q-154 -82 -340 -82q-124 0 -231.5 31t-187.5 85t-142.5 125.5t-101 155t-58.5 171 t-20 175.5zM254 698q0 -166 74 -302t203 -213t286 -77q131 0 242 54l-189 225l131 109l197 -240q87 80 135.5 195.5t48.5 248.5q0 167 -70.5 302t-200 212.5t-294.5 77.5q-158 0 -286.5 -75.5t-202.5 -211.5t-74 -305z" />
<glyph unicode="R" horiz-adv-x="1157" d="M152 0v1397h403q101 0 183 -24.5t135 -64t89 -93.5t51 -111t15 -117q0 -144 -94 -253t-229 -134l440 -600h-215l-422 584h-186v-584h-170zM322 739h253q133 0 205 70t72 178q0 123 -77 188.5t-222 65.5h-231v-502z" />
<glyph unicode="S" horiz-adv-x="1036" d="M92 190l144 99q86 -187 280 -187q82 0 142 39t87 95t27 118q0 72 -23 122t-88.5 98.5t-183.5 93.5q-187 71 -271.5 164.5t-84.5 246.5t110.5 258t280.5 105q129 0 217 -47t162 -148l-135 -102q-86 149 -244 149q-101 0 -160 -60t-59 -155q0 -89 50.5 -143t188.5 -109 q228 -91 320 -196t92 -266q0 -76 -28 -148t-79.5 -131t-135.5 -95t-187 -36q-300 0 -422 235z" />
<glyph unicode="T" horiz-adv-x="1042" d="M29 1241v156h985v-156h-408v-1241h-170v1241h-407z" />
<glyph unicode="U" horiz-adv-x="1280" d="M131 557v840h170v-865q0 -190 91 -308t249 -118q90 0 156.5 31t106 89t58.5 134t19 172v865h168v-836q0 -131 -26.5 -235t-72.5 -172.5t-111 -114t-138.5 -65t-159.5 -19.5q-79 0 -150.5 19.5t-138 64.5t-115 113t-77.5 172t-29 233z" />
<glyph unicode="V" horiz-adv-x="1224" d="M10 1397h185l329 -934q43 -121 90 -268h4q39 127 93 270l333 932h170l-522 -1397h-160z" />
<glyph unicode="W" horiz-adv-x="1705" d="M33 1397h174l229 -901q41 -157 62 -273h8q4 23 14 83.5t19.5 109.5t21.5 98l219 883h168l219 -897q37 -147 56 -277h8q22 147 53 275l215 899h174l-350 -1397h-182l-219 889q-42 171 -56 297h-8q-17 -125 -59 -297l-215 -889h-170z" />
<glyph unicode="X" horiz-adv-x="1155" d="M18 0l461 715l-444 682h201l247 -383q60 -91 99 -160h6q56 99 98 164l244 379h186l-448 -672l469 -725h-199l-252 395q-40 62 -115 189h-4l-116 -189l-244 -395h-189z" />
<glyph unicode="Y" horiz-adv-x="1148" d="M25 1397h188l281 -512q52 -89 81 -158h5q33 78 77 156l279 514h188l-462 -826v-571h-170v569z" />
<glyph unicode="Z" horiz-adv-x="1230" d="M84 0v145l825 1096h-790v156h993v-148l-825 -1093h858v-156h-1061z" />
<glyph unicode="[" horiz-adv-x="722" d="M203 -410v1901h372v-143h-217v-1614h217v-144h-372z" />
<glyph unicode="\" horiz-adv-x="827" d="M10 1475h162l643 -1708h-164z" />
<glyph unicode="]" horiz-adv-x="722" d="M147 -266h218v1614h-218v143h373v-1901h-373v144z" />
<glyph unicode="^" horiz-adv-x="1376" d="M131 668l483 774h148l483 -774h-176l-379 610h-6l-377 -610h-176z" />
<glyph unicode="_" horiz-adv-x="1126" d="M0 -336h1126v-151h-1126v151z" />
<glyph unicode="`" horiz-adv-x="671" d="M88 1423l119 113l270 -307l-90 -86z" />
<glyph unicode="a" horiz-adv-x="1206" d="M72 477q0 219 138.5 362.5t348.5 143.5q233 0 346 -166h2v135h162v-952h-162v135h-4q-53 -78 -144 -123t-212 -45q-95 0 -181.5 36.5t-151.5 102t-103.5 162t-38.5 209.5zM240 477q0 -69 21.5 -134t62.5 -118.5t108 -86t150 -32.5q137 0 238.5 104.5t101.5 260.5 q0 163 -98 267t-238 104q-84 0 -152 -31.5t-109 -84t-63 -116.5t-22 -133z" />
<glyph unicode="b" horiz-adv-x="1206" d="M137 0v1477h162v-660h2q113 166 346 166q210 0 349 -143.5t139 -362.5q0 -113 -39 -209.5t-104.5 -161.5t-152 -102t-180.5 -37q-121 0 -212 45t-144 123h-4v-135h-162zM285 471q0 -156 101.5 -260.5t238.5 -104.5q83 0 149.5 32.5t107.5 86t63 118.5t22 134t-22 133 t-63 116.5t-109 84t-152 31.5q-140 0 -238 -104t-98 -267z" />
<glyph unicode="c" horiz-adv-x="978" d="M72 479q0 140 60 254t174.5 182t264.5 68q237 0 367 -143l-109 -113q-87 115 -258 115q-142 0 -236.5 -95t-94.5 -270q0 -160 97 -264t245 -104q155 0 252 114l106 -110q-131 -146 -360 -146q-222 0 -365 143.5t-143 368.5z" />
<glyph unicode="d" horiz-adv-x="1206" d="M72 477q0 219 138.5 362.5t348.5 143.5q233 0 346 -166h2v660h162v-1477h-162v135h-4q-53 -78 -144 -123t-212 -45q-95 0 -181.5 36.5t-151.5 102t-103.5 162t-38.5 209.5zM240 477q0 -69 21.5 -134t62.5 -118.5t108 -86t150 -32.5q137 0 238.5 104.5t101.5 260.5 q0 163 -98 267t-238 104q-84 0 -152 -31.5t-109 -84t-63 -116.5t-22 -133z" />
<glyph unicode="e" horiz-adv-x="1087" d="M72 489q0 131 57.5 243t167 181.5t248.5 69.5q100 0 182 -32t134.5 -83t88.5 -117.5t51 -132t15 -129.5q0 -37 -4 -61h-772q0 -125 93.5 -221t217.5 -96q102 0 172.5 40t128.5 123l125 -90q-66 -101 -176 -159t-246 -58q-214 0 -348.5 148.5t-134.5 373.5zM242 565h604 q-13 114 -95.5 195.5t-205.5 81.5q-128 0 -209 -81.5t-94 -195.5z" />
<glyph unicode="f" horiz-adv-x="595" d="M55 817v135h135v213q0 156 76.5 238t225.5 82q63 0 131 -21l-25 -131q-49 17 -96 17q-73 0 -110.5 -44.5t-37.5 -119.5v-234h215v-135h-215v-817h-164v817h-135z" />
<glyph unicode="g" horiz-adv-x="1206" d="M72 477q0 219 138.5 362.5t348.5 143.5q222 0 348 -164v133h162v-940q0 -263 -127 -400.5t-385 -137.5q-212 0 -369 88l72 139q124 -86 303 -86q344 0 344 397v123h-4q-53 -78 -144 -123t-212 -45q-95 0 -181.5 36.5t-151.5 102t-103.5 162t-38.5 209.5zM240 477 q0 -69 21.5 -134t62.5 -118.5t108 -86t150 -32.5q137 0 238.5 104.5t101.5 260.5q0 163 -98 267t-238 104q-84 0 -152 -31.5t-109 -84t-63 -116.5t-22 -133z" />
<glyph unicode="h" horiz-adv-x="1097" d="M137 0v1477h162v-650h4q110 156 297 156q54 0 104.5 -13t100 -45t86.5 -79.5t59.5 -123t22.5 -169.5v-553h-162v547q0 139 -62.5 215t-175.5 76q-130 0 -202 -83.5t-72 -246.5v-508h-162z" />
<glyph unicode="i" horiz-adv-x="436" d="M119 1178v188h198v-188h-198zM137 0v952h162v-952h-162z" />
<glyph unicode="j" horiz-adv-x="436" d="M-207 -465l37 127q59 -29 139 -29q84 0 126 59t42 189v1071h162v-1073q0 -192 -82.5 -286.5t-232.5 -94.5q-83 0 -191 37zM119 1178v188h198v-188h-198z" />
<glyph unicode="k" horiz-adv-x="868" d="M137 0v1477h162v-924l367 399h204l-403 -428l424 -524h-203l-389 485v-485h-162z" />
<glyph unicode="l" horiz-adv-x="436" d="M137 0v1477h162v-1477h-162z" />
<glyph unicode="m" horiz-adv-x="1708" d="M137 0v952h162v-116h4q110 147 281 147q112 0 195.5 -55t113.5 -140q40 79 126.5 137t201.5 58q166 0 264 -112.5t98 -317.5v-553h-162v547q0 132 -60 211.5t-163 79.5q-107 0 -181.5 -79.5t-74.5 -232.5v-526h-164v567q0 117 -60.5 194t-162.5 77q-118 0 -187 -81.5 t-69 -226.5v-530h-162z" />
<glyph unicode="n" horiz-adv-x="1097" d="M137 0v952h162v-125h4q110 156 297 156q54 0 104.5 -13t100 -45t86.5 -79.5t59.5 -123t22.5 -169.5v-553h-162v547q0 139 -62.5 215t-175.5 76q-130 0 -202 -83.5t-72 -246.5v-508h-162z" />
<glyph unicode="o" horiz-adv-x="1161" d="M72 477q0 144 67 260t183 181t258 65q221 0 365.5 -144.5t144.5 -361.5q0 -212 -146 -361t-364 -149q-215 0 -361.5 147.5t-146.5 362.5zM240 477q0 -157 100.5 -260.5t239.5 -103.5q148 0 245 104t97 260q0 153 -95 257t-247 104q-147 0 -243.5 -102.5t-96.5 -258.5z " />
<glyph unicode="p" horiz-adv-x="1206" d="M137 -481v1433h162v-135h2q113 166 346 166q210 0 349 -143.5t139 -362.5q0 -113 -38.5 -209.5t-104 -162t-152 -102t-181.5 -36.5q-121 0 -212 45t-144 123h-4v-616h-162zM285 471q0 -156 101.5 -260.5t238.5 -104.5q83 0 149.5 32.5t107.5 86t63 118.5t22 134t-22 133 t-63 116.5t-109 84t-152 31.5q-140 0 -238 -104t-98 -267z" />
<glyph unicode="q" horiz-adv-x="1206" d="M72 477q0 219 138.5 362.5t348.5 143.5q233 0 346 -166h2v135h162v-1433h-162v616h-4q-53 -78 -144 -123t-212 -45q-95 0 -181.5 36.5t-151.5 102t-103.5 162t-38.5 209.5zM240 477q0 -69 21.5 -134t62.5 -118.5t108 -86t150 -32.5q137 0 238.5 104.5t101.5 260.5 q0 163 -98 267t-238 104q-84 0 -152 -31.5t-109 -84t-63 -116.5t-22 -133z" />
<glyph unicode="r" horiz-adv-x="675" d="M137 0v952h162v-139h4q28 72 95 121t157 49q47 0 90 -12l-29 -164q-30 10 -73 10q-110 0 -177 -77t-67 -236v-504h-162z" />
<glyph unicode="s" horiz-adv-x="851" d="M92 156l131 84q25 -65 79 -99.5t132 -34.5q82 0 125 38.5t43 99.5q0 64 -44 106.5t-171 83.5q-135 44 -197.5 114t-62.5 177q0 108 81 183t230 75q199 0 291 -141l-123 -90q-23 43 -66.5 68.5t-95.5 25.5q-73 0 -115 -35.5t-42 -87.5q0 -48 39.5 -87t156.5 -75 q281 -88 281 -305q0 -133 -91 -211t-245 -78q-241 0 -336 189z" />
<glyph unicode="t" horiz-adv-x="634" d="M33 817v135h123v303h161v-303h252v-135h-252v-489q0 -117 34.5 -160t113.5 -43q52 0 98 16l29 -129q-68 -24 -160 -24q-144 0 -210 77.5t-66 260.5v491h-123z" />
<glyph unicode="u" horiz-adv-x="1073" d="M125 395v557h162v-544q0 -141 60.5 -218t164.5 -77q124 0 193 84t69 245v510h162v-952h-162v113h-4q-115 -148 -285 -148q-52 0 -101.5 13.5t-97 45.5t-83 80t-57 123t-21.5 168z" />
<glyph unicode="v" horiz-adv-x="858" d="M2 952h166l197 -553q42 -117 63 -217h8q17 96 60 215l194 555h164l-348 -952h-156z" />
<glyph unicode="w" horiz-adv-x="1378" d="M53 952h164l145 -624q28 -127 39 -191h7q10 47 47 201l145 614h178l152 -622q17 -69 41 -193h6q12 90 35 191l149 624h162l-248 -952h-207l-135 557q-29 127 -43 207h-8q-11 -92 -37 -207l-135 -557h-211z" />
<glyph unicode="x" horiz-adv-x="968" d="M47 0l350 489l-327 463h188l164 -233q36 -53 63 -101h4q1 1 30 42.5t40 58.5l156 233h188l-332 -458l353 -494h-191l-180 260l-70 98h-6l-69 -98l-177 -260h-184z" />
<glyph unicode="y" horiz-adv-x="860" d="M2 952h166l199 -553q49 -144 61 -196h2q9 33 64 196l196 553h166l-530 -1433h-156l178 481z" />
<glyph unicode="z" horiz-adv-x="960" d="M82 0v129l569 688h-545v135h748v-127l-567 -688h592v-137h-797z" />
<glyph unicode="{" horiz-adv-x="778" d="M166 485v105q83 10 126.5 56.5t43.5 115.5v430q0 154 76.5 237.5t214.5 88.5v-119q-70 -4 -99.5 -47t-29.5 -123v-426q0 -86 -39.5 -157t-122.5 -107v-4q78 -31 120 -105.5t42 -183.5v-400q0 -79 29.5 -121.5t99.5 -46.5v-118q-138 2 -214.5 85.5t-76.5 237.5v428 q0 71 -43.5 117.5t-126.5 56.5z" />
<glyph unicode="|" horiz-adv-x="778" d="M313 -430v2048h148v-2048h-148z" />
<glyph unicode="}" horiz-adv-x="778" d="M152 -322q70 4 99.5 46.5t29.5 121.5v400q0 109 41.5 183.5t119.5 105.5v4q-83 36 -122 107t-39 157v426q0 80 -29.5 123t-99.5 47v119q138 -5 214 -88.5t76 -237.5v-430q0 -69 43.5 -115.5t126.5 -56.5v-105q-83 -10 -126.5 -56.5t-43.5 -117.5v-428q0 -154 -76 -237.5 t-214 -85.5v118z" />
<glyph unicode="~" horiz-adv-x="1376" d="M119 471q129 213 327 213q116 0 256 -78q139 -80 224 -80q132 0 223 150l108 -76q-69 -109 -145.5 -160t-185.5 -51q-127 0 -256 76q-72 43 -118.5 61.5t-100.5 18.5q-70 0 -121 -36t-105 -114z" />
<glyph unicode="&#xa1;" horiz-adv-x="468" d="M145 0l17 1010h147l17 -1010h-181zM145 1217v180h181v-180h-181z" />
<glyph unicode="&#xa2;" d="M113 713q0 197 119 341t315 173v170h137v-166q115 -9 203.5 -60t142.5 -133l-127 -86q-70 118 -219 140v-764q153 18 234 159l126 -88q-132 -196 -360 -213v-186h-137v190q-189 30 -311.5 170t-122.5 353zM281 711q0 -141 72 -242.5t194 -132.5v749q-116 -26 -191 -124 t-75 -250z" />
<glyph unicode="&#xa3;" d="M49 123q258 117 258 313q0 116 -22 215h-176v146h137q-29 149 -29 262q0 165 104 275t297 110q309 0 418 -293l-166 -61q-63 206 -252 206q-110 0 -170.5 -70t-60.5 -184q0 -109 25 -245h438v-146h-408q19 -120 19 -186q0 -160 -105 -248q60 0 128.5 -27t139 -54 t134.5 -27q79 0 121.5 39.5t60.5 134.5l156 -41q-33 -146 -111.5 -216.5t-226.5 -70.5q-60 0 -121 17.5t-104 39t-99 39t-106 17.5q-107 0 -219 -64z" />
<glyph unicode="&#xa4;" horiz-adv-x="1265" d="M168 356l139 133q-80 111 -80 236q0 133 80 236l-139 135l86 90l137 -137q111 77 240 77q142 0 237 -77l140 137l88 -90l-140 -135q78 -105 78 -236q0 -126 -78 -236l140 -133l-88 -90l-138 137q-104 -79 -239 -79q-133 0 -240 79l-137 -137zM352 727q0 -116 81.5 -198.5 t197.5 -82.5t197 82.5t81 198.5q0 119 -83.5 198t-192.5 79q-119 0 -200 -82.5t-81 -194.5z" />
<glyph unicode="&#xa5;" d="M57 1397h183l258 -506q40 -75 80 -172h4q39 98 75 170l254 508h183l-363 -680h301v-137h-373v-187h373v-137h-373v-256h-167v256h-373v137h373v187h-373v137h299z" />
<glyph unicode="&#xa6;" horiz-adv-x="778" d="M313 -225v614h148v-614h-148zM313 799v614h148v-614h-148z" />
<glyph unicode="&#xa7;" horiz-adv-x="880" d="M113 715q0 75 44.5 136t121.5 85q-67 46 -100.5 101t-33.5 137q0 114 82.5 191t225.5 77q220 0 292 -197l-133 -53q-42 117 -163 117q-73 0 -112.5 -35.5t-39.5 -93.5q0 -63 45 -106.5t182 -102.5q248 -108 248 -293q0 -79 -41.5 -141.5t-118.5 -98.5q125 -84 125 -233 q0 -75 -33 -139t-106.5 -107t-175.5 -43q-221 0 -293 197l133 53q43 -121 162 -121q75 0 117.5 43.5t42.5 106.5t-38.5 107.5t-137.5 84.5q-143 59 -219 136t-76 192zM264 725q0 -71 47 -114t185 -107q60 24 91 68.5t31 99.5q0 68 -49 107.5t-170 88.5q-57 -8 -96 -46.5 t-39 -96.5z" />
<glyph unicode="&#xa8;" horiz-adv-x="671" d="M63 1221v180h189v-180h-189zM420 1221v180h188v-180h-188z" />
<glyph unicode="&#xa9;" horiz-adv-x="1691" d="M102 698q0 151 59 289t158.5 237.5t237.5 158.5t289 59q202 0 373.5 -100t270.5 -271t99 -373q0 -151 -58.5 -288.5t-158 -237t-237 -158.5t-289.5 -59q-202 0 -373 99.5t-271 270.5t-100 373zM203 698q0 -174 86.5 -322t234.5 -234.5t322 -86.5q175 0 323 86.5 t234 234.5t86 322t-86 322t-234 234.5t-323 86.5q-174 0 -322 -86.5t-234.5 -234.5t-86.5 -322zM455 713q0 177 112.5 295t282.5 118q243 0 336 -211l-125 -61q-55 141 -211 141q-110 0 -181 -75t-71 -211q0 -124 70.5 -205.5t187.5 -81.5q149 0 205 143l125 -61 q-93 -211 -336 -211q-179 0 -287 118.5t-108 301.5z" />
<glyph unicode="&#xaa;" horiz-adv-x="770" d="M63 885q0 119 85 186.5t241 67.5q66 0 123 -11v35q0 162 -152 162q-111 0 -161 -106l-113 57q44 84 109.5 125t164.5 41q136 0 212.5 -70.5t76.5 -208.5v-289q0 -49 10 -67.5t31 -18.5q10 0 27 7l24 -107q-42 -22 -98 -22q-102 0 -119 112q-34 -55 -94 -87t-131 -32 q-103 0 -169.5 59t-66.5 167zM205 885q0 -51 32.5 -79t92.5 -28q86 0 134 52.5t48 142.5v43q-62 8 -123 8q-91 0 -137.5 -37t-46.5 -102z" />
<glyph unicode="&#xab;" horiz-adv-x="931" d="M119 496l250 403l110 -59l-178 -344l178 -344l-110 -64zM463 496l250 403l110 -59l-178 -344l178 -344l-110 -64z" />
<glyph unicode="&#xac;" horiz-adv-x="1376" d="M156 625v147h1063v-545h-156v398h-907z" />
<glyph unicode="&#xad;" horiz-adv-x="964" d="M170 459v164h659v-164h-659z" />
<glyph unicode="&#xae;" horiz-adv-x="993" d="M76 1020q0 113 57.5 210t154.5 154.5t210 57.5q173 0 296.5 -125t123.5 -297q0 -176 -123 -298t-297 -122q-173 0 -297.5 122t-124.5 298zM156 1020q0 -140 101 -240t241 -100q141 0 240.5 99.5t99.5 240.5t-99.5 240.5t-240.5 99.5q-140 0 -241 -100t-101 -240zM332 795 v462h180q90 0 134 -41.5t44 -101.5q0 -53 -29.5 -88.5t-78.5 -46.5l135 -184h-111l-125 174h-53v-174h-96zM428 1040h70q90 0 90 70q0 72 -88 72h-72v-142z" />
<glyph unicode="&#xaf;" horiz-adv-x="671" d="M61 1237v133h549v-133h-549z" />
<glyph unicode="&#xb0;" horiz-adv-x="739" d="M113 1169q0 104 76 180t182 76q104 0 180 -76t76 -180t-76 -180t-180 -76q-106 0 -182 76t-76 180zM217 1167q0 -66 44 -108.5t110 -42.5q64 0 107.5 43t43.5 108q0 66 -44 111t-107 45q-66 0 -110 -45t-44 -111z" />
<glyph unicode="&#xb1;" horiz-adv-x="1376" d="M160 0v152h1054v-152h-1054zM160 672v151h450v387h152v-387h452v-151h-452v-383h-152v383h-450z" />
<glyph unicode="&#xb2;" horiz-adv-x="815" d="M119 1556q35 114 111.5 172t187.5 58q132 0 212.5 -72.5t80.5 -179.5q0 -81 -45.5 -153t-149.5 -179l-190 -201h397v-131h-602v107l293 311q39 43 55.5 63t40.5 53.5t33.5 62.5t9.5 61q0 60 -37.5 95.5t-103.5 35.5q-111 0 -152 -143z" />
<glyph unicode="&#xb3;" horiz-adv-x="815" d="M88 1047l141 49q21 -67 62 -99t112 -32q78 0 123 47t45 121q0 69 -48 113t-146 44h-60v117h52q78 0 124 35.5t46 95.5q0 57 -35 92t-101 35q-111 0 -149 -115l-135 56q74 180 284 180q136 0 212.5 -63.5t76.5 -166.5q0 -73 -45 -125.5t-115 -70.5v-4q89 -19 140 -79.5 t51 -154.5q0 -116 -85 -198t-237 -82q-248 0 -313 205z" />
<glyph unicode="&#xb4;" horiz-adv-x="671" d="M195 1229l270 307l119 -113l-299 -280z" />
<glyph unicode="&#xb5;" horiz-adv-x="1093" d="M137 -481v1433h162v-544q0 -137 58 -216t171 -79q126 0 191 88t65 245v506h162v-684q0 -151 80 -151q17 0 41 4l23 -125q-40 -16 -95 -16q-79 0 -125.5 41t-62.5 110h-4q-51 -82 -118 -124t-169 -42q-75 0 -135.5 34t-89.5 93h-6q14 -98 14 -256v-317h-162z" />
<glyph unicode="&#xb6;" horiz-adv-x="1146" d="M74 1079q0 151 98 234.5t262 83.5h555v-125h-133v-1272h-133v1272h-164v-1272h-131v756q-164 4 -259 93t-95 230z" />
<glyph unicode="&#xb7;" horiz-adv-x="468" d="M123 592v225h225v-225h-225z" />
<glyph unicode="&#xb8;" horiz-adv-x="671" d="M111 -451l41 115q49 -22 137 -22q117 0 117 79q0 97 -195 97l76 182h127l-33 -80q75 -18 119.5 -68.5t44.5 -121.5q0 -95 -61 -153t-173 -58q-108 0 -200 30z" />
<glyph unicode="&#xb9;" horiz-adv-x="815" d="M211 1632v127h287v-889h-150v762h-137z" />
<glyph unicode="&#xba;" horiz-adv-x="917" d="M66 1055q0 171 112.5 279t280.5 108q173 0 283 -112.5t110 -274.5q0 -168 -109 -279.5t-284 -111.5q-169 0 -281 109t-112 282zM219 1053q0 -107 68.5 -179.5t171.5 -72.5q104 0 171.5 71t67.5 181q0 107 -68 179.5t-171 72.5t-171.5 -67t-68.5 -185z" />
<glyph unicode="&#xbb;" horiz-adv-x="931" d="M109 150l178 344l-178 344l110 61l250 -405l-250 -406zM453 150l178 344l-178 344l110 61l250 -405l-250 -406z" />
<glyph unicode="&#xbc;" horiz-adv-x="1855" d="M211 1274v127h287v-889h-150v762h-137zM406 0l927 1397h158l-928 -1397h-157zM1096 174v115l428 600h137v-594h133v-121h-133v-174h-150v174h-415zM1245 295h266v285q0 29 3 58.5t4 41.5h-7q-24 -50 -65 -105z" />
<glyph unicode="&#xbd;" horiz-adv-x="1957" d="M211 1274v127h287v-889h-150v762h-137zM406 0l927 1397h158l-928 -1397h-157zM1262 686q70 229 299 229q132 0 212 -72t80 -179q0 -81 -45 -153t-149 -179l-191 -201h398v-131h-602v106l292 312q34 38 45 50t35.5 43.5t33.5 49t17.5 44t8.5 52.5q0 60 -38 95.5t-104 35.5 q-110 0 -151 -143z" />
<glyph unicode="&#xbe;" horiz-adv-x="1916" d="M88 688l141 49q21 -67 62 -99t112 -32q78 0 123 47t45 121q0 69 -48 113.5t-146 44.5h-60v117h52q78 0 124 35.5t46 95.5q0 57 -35 92t-101 35q-111 0 -149 -115l-135 55q74 180 284 180q136 0 212.5 -63.5t76.5 -165.5q0 -73 -45 -126t-115 -71v-4q89 -19 140 -79 t51 -154q0 -116 -85 -198.5t-237 -82.5q-248 0 -313 205zM467 0l928 1397h157l-927 -1397h-158zM1157 174v115l428 600h137v-594h133v-121h-133v-174h-149v174h-416zM1307 295h266v285q0 30 2.5 60t3.5 40h-6q-22 -46 -66 -105z" />
<glyph unicode="&#xbf;" horiz-adv-x="890" d="M33 324q0 57 15 111.5t33.5 92t54 83t55 66t59.5 60.5q64 64 91.5 125.5t27.5 147.5h149q0 -118 -22.5 -192.5t-92.5 -153.5q-18 -21 -53 -59.5t-49.5 -55t-37 -46.5t-31 -51t-16 -50.5t-7.5 -61.5q0 -101 63 -167.5t174 -66.5q99 0 166.5 66.5t67.5 179.5h178 q-4 -176 -123 -286.5t-295 -110.5q-99 0 -178 30.5t-128 83t-75 117.5t-26 138zM354 1217v180h181v-180h-181z" />
<glyph unicode="&#xc0;" horiz-adv-x="1302" d="M14 0l570 1397h151l553 -1397h-186l-150 397h-606l-151 -397h-181zM406 549h489l-141 373q-65 169 -97 282h-8q-51 -162 -100 -284zM408 1677l77 146l355 -205l-60 -111z" />
<glyph unicode="&#xc1;" horiz-adv-x="1302" d="M14 0l570 1397h151l553 -1397h-186l-150 397h-606l-151 -397h-181zM406 549h489l-141 373q-65 169 -97 282h-8q-51 -162 -100 -284zM492 1618l354 205l78 -146l-373 -170z" />
<glyph unicode="&#xc2;" horiz-adv-x="1302" d="M14 0l570 1397h151l553 -1397h-186l-150 397h-606l-151 -397h-181zM379 1612l287 200l286 -200l-55 -101l-231 119l-232 -119zM406 549h489l-141 373q-65 169 -97 282h-8q-51 -162 -100 -284z" />
<glyph unicode="&#xc3;" horiz-adv-x="1302" d="M14 0l570 1397h151l553 -1397h-186l-150 397h-606l-151 -397h-181zM338 1583q5 105 50.5 171.5t139.5 66.5q46 0 79.5 -16t76.5 -52q74 -61 123 -61q31 0 46.5 24.5t16.5 87.5h123q-5 -115 -50.5 -176t-143.5 -61q-89 0 -166 65q-42 36 -65.5 50t-43.5 14q-57 0 -63 -113 h-123zM406 549h489l-141 373q-65 169 -97 282h-8q-51 -162 -100 -284z" />
<glyph unicode="&#xc4;" horiz-adv-x="1302" d="M14 0l570 1397h151l553 -1397h-186l-150 397h-606l-151 -397h-181zM393 1589v180h189v-180h-189zM406 549h489l-141 373q-65 169 -97 282h-8q-51 -162 -100 -284zM750 1589v180h188v-180h-188z" />
<glyph unicode="&#xc5;" horiz-adv-x="1302" d="M14 0l570 1397h151l553 -1397h-186l-150 397h-606l-151 -397h-181zM406 549h489l-141 373q-65 169 -97 282h-8q-51 -162 -100 -284zM416 1716q0 103 73.5 175.5t178.5 72.5q103 0 175 -72.5t72 -175.5q0 -104 -72 -178t-175 -74q-105 0 -178.5 73.5t-73.5 178.5z M528 1716q0 -57 41.5 -98t98.5 -41t96 41t39 98t-39 96t-96 39t-98.5 -39t-41.5 -96z" />
<glyph unicode="&#xc6;" horiz-adv-x="1767" d="M-10 0l768 1397h856v-156h-551v-440h528v-156h-528v-489h573v-156h-743v377h-514l-201 -377h-188zM459 528h434v713h-47z" />
<glyph unicode="&#xc7;" horiz-adv-x="1400" d="M78 702q0 158 55.5 296t151.5 235t229.5 153t284.5 56q343 0 538 -234l-125 -112q-62 88 -170.5 141t-244.5 53q-106 0 -203 -39t-173 -111t-121.5 -186t-45.5 -254q0 -165 69.5 -301t194.5 -214.5t281 -78.5q134 0 240.5 53t174.5 146l125 -112q-181 -219 -483 -236 l-14 -37q75 -18 119.5 -68.5t44.5 -121.5q0 -95 -61 -153t-173 -58q-109 0 -201 30l41 115q49 -22 138 -22q116 0 116 79q0 97 -194 97l57 141q-292 25 -471.5 231t-179.5 512z" />
<glyph unicode="&#xc8;" horiz-adv-x="1071" d="M152 0v1397h766v-156h-596v-440h573v-156h-573v-489h618v-156h-788zM287 1677l78 146l354 -205l-60 -111z" />
<glyph unicode="&#xc9;" horiz-adv-x="1071" d="M152 0v1397h766v-156h-596v-440h573v-156h-573v-489h618v-156h-788zM371 1618l354 205l78 -146l-373 -170z" />
<glyph unicode="&#xca;" horiz-adv-x="1071" d="M152 0v1397h766v-156h-596v-440h573v-156h-573v-489h618v-156h-788zM258 1612l287 200l286 -200l-55 -101l-231 119l-232 -119z" />
<glyph unicode="&#xcb;" horiz-adv-x="1071" d="M152 0v1397h766v-156h-596v-440h573v-156h-573v-489h618v-156h-788zM272 1589v180h189v-180h-189zM629 1589v180h188v-180h-188z" />
<glyph unicode="&#xcc;" horiz-adv-x="473" d="M-12 1677l78 146l354 -205l-60 -111zM152 0v1397h170v-1397h-170z" />
<glyph unicode="&#xcd;" horiz-adv-x="473" d="M72 1618l354 205l78 -146l-373 -170zM152 0v1397h170v-1397h-170z" />
<glyph unicode="&#xce;" horiz-adv-x="473" d="M-41 1612l287 200l286 -200l-55 -101l-231 119l-232 -119zM152 0v1397h170v-1397h-170z" />
<glyph unicode="&#xcf;" horiz-adv-x="473" d="M-27 1589v180h189v-180h-189zM152 0v1397h170v-1397h-170zM330 1589v180h188v-180h-188z" />
<glyph unicode="&#xd0;" horiz-adv-x="1488" d="M31 647v156h166v594h452q148 0 272.5 -36t214 -100t152 -151.5t93 -191.5t30.5 -220q0 -142 -51.5 -268t-146.5 -222t-242 -152t-326 -56h-448v647h-166zM367 156h288q141 0 253 42.5t182.5 117t107.5 172t37 210.5q0 245 -153 394t-427 149h-288v-438h405v-156h-405 v-491z" />
<glyph unicode="&#xd1;" horiz-adv-x="1372" d="M152 0v1397h159l455 -672q211 -308 295 -459h4q-4 160 -4 297v834h160v-1397h-160l-455 672q-238 349 -295 456h-4q4 -152 4 -292v-836h-159zM369 1583q5 105 50.5 171.5t139.5 66.5q46 0 79.5 -16t76.5 -52q74 -61 123 -61q31 0 46.5 24.5t16.5 87.5h123 q-5 -115 -51 -176t-144 -61q-88 0 -165 65q-42 36 -65.5 50t-43.5 14q-57 0 -63 -113h-123z" />
<glyph unicode="&#xd2;" horiz-adv-x="1636" d="M78 698q0 148 55.5 284t152 237.5t236 162t297.5 60.5q134 0 252.5 -39.5t206.5 -110t152 -163.5t96.5 -203.5t32.5 -227.5q0 -152 -57 -289t-155 -236.5t-236 -158.5t-292 -59q-124 0 -231.5 31t-187.5 85t-142.5 125.5t-101 155t-58.5 171t-20 175.5zM254 698 q0 -166 74 -302t203 -213t286 -77t286.5 77t204 213t74.5 302q0 167 -70.5 302t-200 212.5t-294.5 77.5q-158 0 -286.5 -75.5t-202.5 -211.5t-74 -305zM569 1677l78 146l354 -205l-59 -111z" />
<glyph unicode="&#xd3;" horiz-adv-x="1636" d="M78 698q0 148 55.5 284t152 237.5t236 162t297.5 60.5q134 0 252.5 -39.5t206.5 -110t152 -163.5t96.5 -203.5t32.5 -227.5q0 -152 -57 -289t-155 -236.5t-236 -158.5t-292 -59q-124 0 -231.5 31t-187.5 85t-142.5 125.5t-101 155t-58.5 171t-20 175.5zM254 698 q0 -166 74 -302t203 -213t286 -77t286.5 77t204 213t74.5 302q0 167 -70.5 302t-200 212.5t-294.5 77.5q-158 0 -286.5 -75.5t-202.5 -211.5t-74 -305zM653 1618l355 205l77 -146l-372 -170z" />
<glyph unicode="&#xd4;" horiz-adv-x="1636" d="M78 698q0 148 55.5 284t152 237.5t236 162t297.5 60.5q134 0 252.5 -39.5t206.5 -110t152 -163.5t96.5 -203.5t32.5 -227.5q0 -152 -57 -289t-155 -236.5t-236 -158.5t-292 -59q-124 0 -231.5 31t-187.5 85t-142.5 125.5t-101 155t-58.5 171t-20 175.5zM254 698 q0 -166 74 -302t203 -213t286 -77t286.5 77t204 213t74.5 302q0 167 -70.5 302t-200 212.5t-294.5 77.5q-158 0 -286.5 -75.5t-202.5 -211.5t-74 -305zM541 1612l286 200l287 -200l-55 -101l-232 119l-231 -119z" />
<glyph unicode="&#xd5;" horiz-adv-x="1636" d="M78 698q0 148 55.5 284t152 237.5t236 162t297.5 60.5q134 0 252.5 -39.5t206.5 -110t152 -163.5t96.5 -203.5t32.5 -227.5q0 -152 -57 -289t-155 -236.5t-236 -158.5t-292 -59q-124 0 -231.5 31t-187.5 85t-142.5 125.5t-101 155t-58.5 171t-20 175.5zM254 698 q0 -166 74 -302t203 -213t286 -77t286.5 77t204 213t74.5 302q0 167 -70.5 302t-200 212.5t-294.5 77.5q-158 0 -286.5 -75.5t-202.5 -211.5t-74 -305zM500 1583q5 105 50.5 171.5t139.5 66.5q46 0 79.5 -16t76.5 -52q74 -61 123 -61q31 0 46.5 24.5t16.5 87.5h123 q-5 -115 -50.5 -176t-143.5 -61q-89 0 -166 65q-42 36 -65.5 50t-43.5 14q-57 0 -63 -113h-123z" />
<glyph unicode="&#xd6;" horiz-adv-x="1636" d="M78 698q0 148 55.5 284t152 237.5t236 162t297.5 60.5q134 0 252.5 -39.5t206.5 -110t152 -163.5t96.5 -203.5t32.5 -227.5q0 -152 -57 -289t-155 -236.5t-236 -158.5t-292 -59q-124 0 -231.5 31t-187.5 85t-142.5 125.5t-101 155t-58.5 171t-20 175.5zM254 698 q0 -166 74 -302t203 -213t286 -77t286.5 77t204 213t74.5 302q0 167 -70.5 302t-200 212.5t-294.5 77.5q-158 0 -286.5 -75.5t-202.5 -211.5t-74 -305zM555 1589v180h188v-180h-188zM911 1589v180h189v-180h-189z" />
<glyph unicode="&#xd7;" horiz-adv-x="1376" d="M178 926l107 106l397 -401l399 397l107 -106l-397 -400l399 -401l-107 -107l-397 406l-399 -406l-107 107l400 401z" />
<glyph unicode="&#xd8;" horiz-adv-x="1636" d="M76 -8l184 201q-90 106 -136 237t-46 268q0 148 55.5 284t152 237.5t236 162t297.5 60.5q256 0 455 -148l180 195l98 -92l-180 -195q91 -102 139 -232t48 -272q0 -152 -57 -289t-155 -236.5t-236 -158.5t-292 -59q-273 0 -461 145l-182 -198zM254 698q0 -225 123 -379 l788 855q-150 116 -348 116q-158 0 -286.5 -75.5t-202.5 -211.5t-74 -305zM473 223q152 -117 344 -117q157 0 286.5 77t204 213t74.5 302q0 222 -122 381z" />
<glyph unicode="&#xd9;" horiz-adv-x="1280" d="M131 557v840h170v-865q0 -190 91 -308t249 -118q90 0 156.5 31t106 89t58.5 134t19 172v865h168v-836q0 -131 -26.5 -235t-72.5 -172.5t-111 -114t-138.5 -65t-159.5 -19.5q-79 0 -150.5 19.5t-138 64.5t-115 113t-77.5 172t-29 233zM383 1677l78 146l354 -205l-59 -111z " />
<glyph unicode="&#xda;" horiz-adv-x="1280" d="M131 557v840h170v-865q0 -190 91 -308t249 -118q90 0 156.5 31t106 89t58.5 134t19 172v865h168v-836q0 -131 -26.5 -235t-72.5 -172.5t-111 -114t-138.5 -65t-159.5 -19.5q-79 0 -150.5 19.5t-138 64.5t-115 113t-77.5 172t-29 233zM467 1618l354 205l78 -146l-373 -170 z" />
<glyph unicode="&#xdb;" horiz-adv-x="1280" d="M131 557v840h170v-865q0 -190 91 -308t249 -118q90 0 156.5 31t106 89t58.5 134t19 172v865h168v-836q0 -131 -26.5 -235t-72.5 -172.5t-111 -114t-138.5 -65t-159.5 -19.5q-79 0 -150.5 19.5t-138 64.5t-115 113t-77.5 172t-29 233zM354 1612l287 200l287 -200l-56 -101 l-231 119l-231 -119z" />
<glyph unicode="&#xdc;" horiz-adv-x="1280" d="M131 557v840h170v-865q0 -190 91 -308t249 -118q90 0 156.5 31t106 89t58.5 134t19 172v865h168v-836q0 -131 -26.5 -235t-72.5 -172.5t-111 -114t-138.5 -65t-159.5 -19.5q-79 0 -150.5 19.5t-138 64.5t-115 113t-77.5 172t-29 233zM369 1589v180h188v-180h-188z M725 1589v180h188v-180h-188z" />
<glyph unicode="&#xdd;" horiz-adv-x="1148" d="M25 1397h188l281 -512q52 -89 81 -158h5q33 78 77 156l279 514h188l-462 -826v-571h-170v569zM416 1618l354 205l78 -146l-373 -170z" />
<glyph unicode="&#xde;" horiz-adv-x="1089" d="M152 0v1397h170v-271h215q224 0 352.5 -101t128.5 -288q0 -201 -123.5 -307t-372.5 -106h-200v-324h-170zM322 477h223q299 0 299 256q0 116 -75.5 177t-217.5 61h-229v-494z" />
<glyph unicode="&#xdf;" horiz-adv-x="1200" d="M137 0v1038q0 224 110.5 335.5t303.5 111.5q178 0 278.5 -93.5t100.5 -226.5q0 -96 -37 -160.5t-121 -107.5q-67 -35 -93 -66.5t-26 -68.5q0 -52 37 -89.5t139 -82.5q158 -70 220.5 -144t62.5 -190q0 -130 -85.5 -209.5t-242.5 -79.5q-240 0 -335 189l131 84 q25 -65 79 -99.5t132 -34.5q79 0 119 38t40 102q0 66 -41 110.5t-161 96.5q-142 62 -199 131t-57 172q0 80 30.5 131.5t106.5 93.5q86 49 112.5 85.5t26.5 96.5q0 79 -54.5 133t-162.5 54q-252 0 -252 -316v-1034h-162z" />
<glyph unicode="&#xe0;" horiz-adv-x="1206" d="M72 477q0 219 138.5 362.5t348.5 143.5q233 0 346 -166h2v135h162v-952h-162v135h-4q-53 -78 -144 -123t-212 -45q-95 0 -181.5 36.5t-151.5 102t-103.5 162t-38.5 209.5zM240 477q0 -69 21.5 -134t62.5 -118.5t108 -86t150 -32.5q137 0 238.5 104.5t101.5 260.5 q0 163 -98 267t-238 104q-84 0 -152 -31.5t-109 -84t-63 -116.5t-22 -133zM336 1386l119 113l270 -307l-90 -86z" />
<glyph unicode="&#xe1;" horiz-adv-x="1206" d="M72 477q0 219 138.5 362.5t348.5 143.5q233 0 346 -166h2v135h162v-952h-162v135h-4q-53 -78 -144 -123t-212 -45q-95 0 -181.5 36.5t-151.5 102t-103.5 162t-38.5 209.5zM240 477q0 -69 21.5 -134t62.5 -118.5t108 -86t150 -32.5q137 0 238.5 104.5t101.5 260.5 q0 163 -98 267t-238 104q-84 0 -152 -31.5t-109 -84t-63 -116.5t-22 -133zM436 1192l271 307l118 -113l-299 -280z" />
<glyph unicode="&#xe2;" horiz-adv-x="1206" d="M72 477q0 219 138.5 362.5t348.5 143.5q233 0 346 -166h2v135h162v-952h-162v135h-4q-53 -78 -144 -123t-212 -45q-95 0 -181.5 36.5t-151.5 102t-103.5 162t-38.5 209.5zM240 477q0 -69 21.5 -134t62.5 -118.5t108 -86t150 -32.5q137 0 238.5 104.5t101.5 260.5 q0 163 -98 267t-238 104q-84 0 -152 -31.5t-109 -84t-63 -116.5t-22 -133zM293 1198l287 260l286 -260l-84 -92l-202 166l-203 -166z" />
<glyph unicode="&#xe3;" horiz-adv-x="1206" d="M72 477q0 219 138.5 362.5t348.5 143.5q233 0 346 -166h2v135h162v-952h-162v135h-4q-53 -78 -144 -123t-212 -45q-95 0 -181.5 36.5t-151.5 102t-103.5 162t-38.5 209.5zM240 477q0 -69 21.5 -134t62.5 -118.5t108 -86t150 -32.5q137 0 238.5 104.5t101.5 260.5 q0 163 -98 267t-238 104q-84 0 -152 -31.5t-109 -84t-63 -116.5t-22 -133zM274 1180q5 104 51 170.5t140 66.5q46 0 80 -16t76 -51q75 -62 122 -62q31 0 47 25t17 88h123q-5 -115 -51 -176.5t-144 -61.5q-88 0 -166 66q-42 36 -65 49.5t-43 13.5q-58 0 -64 -112h-123z" />
<glyph unicode="&#xe4;" horiz-adv-x="1206" d="M72 477q0 219 138.5 362.5t348.5 143.5q233 0 346 -166h2v135h162v-952h-162v135h-4q-53 -78 -144 -123t-212 -45q-95 0 -181.5 36.5t-151.5 102t-103.5 162t-38.5 209.5zM240 477q0 -69 21.5 -134t62.5 -118.5t108 -86t150 -32.5q137 0 238.5 104.5t101.5 260.5 q0 163 -98 267t-238 104q-84 0 -152 -31.5t-109 -84t-63 -116.5t-22 -133zM309 1182v180h189v-180h-189zM666 1182v180h188v-180h-188z" />
<glyph unicode="&#xe5;" horiz-adv-x="1206" d="M72 477q0 219 138.5 362.5t348.5 143.5q233 0 346 -166h2v135h162v-952h-162v135h-4q-53 -78 -144 -123t-212 -45q-95 0 -181.5 36.5t-151.5 102t-103.5 162t-38.5 209.5zM240 477q0 -69 21.5 -134t62.5 -118.5t108 -86t150 -32.5q137 0 238.5 104.5t101.5 260.5 q0 163 -98 267t-238 104q-84 0 -152 -31.5t-109 -84t-63 -116.5t-22 -133zM330 1300q0 103 73.5 175.5t178.5 72.5q103 0 175 -72.5t72 -175.5q0 -104 -72 -177.5t-175 -73.5q-106 0 -179 73.5t-73 177.5zM442 1300q0 -57 41.5 -98t98.5 -41t96 41t39 98t-39 96.5t-96 39.5 t-98.5 -39.5t-41.5 -96.5z" />
<glyph unicode="&#xe6;" horiz-adv-x="1671" d="M80 260q0 153 125.5 231t361.5 78h158v60q0 97 -58 155t-161 58q-93 0 -149 -37.5t-81 -118.5l-159 62q98 235 383 235q245 0 325 -166q123 166 330 166q97 0 175 -31.5t127 -82t82 -117t46.5 -132t13.5 -131.5q0 -27 -4 -47h-714q0 -146 82 -238.5t217 -92.5 q87 0 147.5 40t112.5 123l125 -90q-60 -101 -158.5 -159t-222.5 -58q-285 0 -393 226q-143 -226 -385 -226q-89 0 -155 25t-102 68.5t-52.5 93t-16.5 106.5zM248 264q0 -80 49 -116.5t125 -36.5q73 0 131 30t93.5 79t55 105.5t23.5 116.5h-158q-319 0 -319 -178zM885 569 h545q-12 122 -84 197.5t-191 75.5q-123 0 -190.5 -78.5t-79.5 -194.5z" />
<glyph unicode="&#xe7;" horiz-adv-x="978" d="M72 479q0 140 60 254t174.5 182t264.5 68q237 0 367 -143l-109 -113q-87 115 -258 115q-142 0 -236.5 -95t-94.5 -270q0 -160 97 -264t245 -104q155 0 252 114l106 -110q-123 -135 -322 -144l-16 -45q71 -19 113.5 -68.5t42.5 -117.5q0 -94 -58.5 -150.5t-169.5 -56.5 q-105 0 -196 31l41 114q46 -22 133 -22q113 0 113 76q0 92 -189 92l62 151q-189 28 -305.5 166t-116.5 340z" />
<glyph unicode="&#xe8;" horiz-adv-x="1087" d="M72 489q0 131 57.5 243t167 181.5t248.5 69.5q100 0 182 -32t134.5 -83t88.5 -117.5t51 -132t15 -129.5q0 -37 -4 -61h-772q0 -125 93.5 -221t217.5 -96q102 0 172.5 40t128.5 123l125 -90q-66 -101 -176 -159t-246 -58q-214 0 -348.5 148.5t-134.5 373.5zM242 565h604 q-13 114 -95.5 195.5t-205.5 81.5q-128 0 -209 -81.5t-94 -195.5zM309 1386l119 113l270 -307l-90 -86z" />
<glyph unicode="&#xe9;" horiz-adv-x="1087" d="M72 489q0 131 57.5 243t167 181.5t248.5 69.5q100 0 182 -32t134.5 -83t88.5 -117.5t51 -132t15 -129.5q0 -37 -4 -61h-772q0 -125 93.5 -221t217.5 -96q102 0 172.5 40t128.5 123l125 -90q-66 -101 -176 -159t-246 -58q-214 0 -348.5 148.5t-134.5 373.5zM242 565h604 q-13 114 -95.5 195.5t-205.5 81.5q-128 0 -209 -81.5t-94 -195.5zM410 1192l270 307l119 -113l-299 -280z" />
<glyph unicode="&#xea;" horiz-adv-x="1087" d="M72 489q0 131 57.5 243t167 181.5t248.5 69.5q100 0 182 -32t134.5 -83t88.5 -117.5t51 -132t15 -129.5q0 -37 -4 -61h-772q0 -125 93.5 -221t217.5 -96q102 0 172.5 40t128.5 123l125 -90q-66 -101 -176 -159t-246 -58q-214 0 -348.5 148.5t-134.5 373.5zM242 565h604 q-13 114 -95.5 195.5t-205.5 81.5q-128 0 -209 -81.5t-94 -195.5zM266 1198l287 260l287 -260l-84 -92l-203 166l-203 -166z" />
<glyph unicode="&#xeb;" horiz-adv-x="1087" d="M72 489q0 131 57.5 243t167 181.5t248.5 69.5q100 0 182 -32t134.5 -83t88.5 -117.5t51 -132t15 -129.5q0 -37 -4 -61h-772q0 -125 93.5 -221t217.5 -96q102 0 172.5 40t128.5 123l125 -90q-66 -101 -176 -159t-246 -58q-214 0 -348.5 148.5t-134.5 373.5zM242 565h604 q-13 114 -95.5 195.5t-205.5 81.5q-128 0 -209 -81.5t-94 -195.5zM283 1182v180h188v-180h-188zM639 1182v180h188v-180h-188z" />
<glyph unicode="&#xec;" horiz-adv-x="436" d="M-18 1386l118 113l271 -307l-90 -86zM137 0v952h162v-952h-162z" />
<glyph unicode="&#xed;" horiz-adv-x="436" d="M84 1192l270 307l119 -113l-299 -280zM137 0v952h162v-952h-162z" />
<glyph unicode="&#xee;" horiz-adv-x="436" d="M-59 1198l286 260l287 -260l-84 -92l-203 166l-202 -166zM137 0v952h162v-952h-162z" />
<glyph unicode="&#xef;" horiz-adv-x="436" d="M-45 1182v180h188v-180h-188zM137 0v952h162v-952h-162zM311 1182v180h189v-180h-189z" />
<glyph unicode="&#xf0;" horiz-adv-x="1161" d="M72 477q0 144 67 260t183 181t258 65q135 0 239 -72l4 4q-82 126 -225 256l-207 -137l-74 111l181 119q-73 58 -152 104l78 123q118 -74 207 -154l162 107l73 -111l-133 -88q179 -168 268 -352.5t89 -405.5q0 -104 -38.5 -199.5t-105.5 -166t-162.5 -112.5t-203.5 -42 q-215 0 -361.5 147.5t-146.5 362.5zM240 477q0 -157 100.5 -260.5t239.5 -103.5q148 0 245 104t97 260q0 153 -95 257t-247 104q-147 0 -243.5 -102.5t-96.5 -258.5z" />
<glyph unicode="&#xf1;" horiz-adv-x="1097" d="M137 0v952h162v-125h4q110 156 297 156q54 0 104.5 -13t100 -45t86.5 -79.5t59.5 -123t22.5 -169.5v-553h-162v547q0 139 -62.5 215t-175.5 76q-130 0 -202 -83.5t-72 -246.5v-508h-162zM262 1180q5 104 51 170.5t140 66.5q46 0 79.5 -15.5t75.5 -51.5q75 -62 123 -62 q31 0 47 25t17 88h123q-5 -115 -51 -176.5t-144 -61.5q-88 0 -166 66q-42 36 -65 49.5t-43 13.5q-58 0 -64 -112h-123z" />
<glyph unicode="&#xf2;" horiz-adv-x="1161" d="M72 477q0 144 67 260t183 181t258 65q221 0 365.5 -144.5t144.5 -361.5q0 -212 -146 -361t-364 -149q-215 0 -361.5 147.5t-146.5 362.5zM240 477q0 -157 100.5 -260.5t239.5 -103.5q148 0 245 104t97 260q0 153 -95 257t-247 104q-147 0 -243.5 -102.5t-96.5 -258.5z M356 1386l119 113l270 -307l-90 -86z" />
<glyph unicode="&#xf3;" horiz-adv-x="1161" d="M72 477q0 144 67 260t183 181t258 65q221 0 365.5 -144.5t144.5 -361.5q0 -212 -146 -361t-364 -149q-215 0 -361.5 147.5t-146.5 362.5zM240 477q0 -157 100.5 -260.5t239.5 -103.5q148 0 245 104t97 260q0 153 -95 257t-247 104q-147 0 -243.5 -102.5t-96.5 -258.5z M436 1192l271 307l118 -113l-299 -280z" />
<glyph unicode="&#xf4;" horiz-adv-x="1161" d="M72 477q0 144 67 260t183 181t258 65q221 0 365.5 -144.5t144.5 -361.5q0 -212 -146 -361t-364 -149q-215 0 -361.5 147.5t-146.5 362.5zM240 477q0 -157 100.5 -260.5t239.5 -103.5q148 0 245 104t97 260q0 153 -95 257t-247 104q-147 0 -243.5 -102.5t-96.5 -258.5z M305 1198l287 260l287 -260l-84 -92l-203 166l-203 -166z" />
<glyph unicode="&#xf5;" horiz-adv-x="1161" d="M72 477q0 144 67 260t183 181t258 65q221 0 365.5 -144.5t144.5 -361.5q0 -212 -146 -361t-364 -149q-215 0 -361.5 147.5t-146.5 362.5zM240 477q0 -157 100.5 -260.5t239.5 -103.5q148 0 245 104t97 260q0 153 -95 257t-247 104q-147 0 -243.5 -102.5t-96.5 -258.5z M262 1180q5 104 51 170.5t140 66.5q46 0 79.5 -15.5t75.5 -51.5q75 -62 123 -62q31 0 47 25t17 88h123q-5 -115 -51 -176.5t-144 -61.5q-88 0 -166 66q-42 36 -65 49.5t-43 13.5q-58 0 -64 -112h-123z" />
<glyph unicode="&#xf6;" horiz-adv-x="1161" d="M72 477q0 144 67 260t183 181t258 65q221 0 365.5 -144.5t144.5 -361.5q0 -212 -146 -361t-364 -149q-215 0 -361.5 147.5t-146.5 362.5zM240 477q0 -157 100.5 -260.5t239.5 -103.5q148 0 245 104t97 260q0 153 -95 257t-247 104q-147 0 -243.5 -102.5t-96.5 -258.5z M319 1182v180h189v-180h-189zM676 1182v180h188v-180h-188z" />
<glyph unicode="&#xf7;" horiz-adv-x="1376" d="M160 465v151h1054v-151h-1054zM578 152q0 45 31.5 77.5t78.5 32.5q49 0 80 -31.5t31 -76.5q0 -50 -32.5 -82.5t-76.5 -32.5q-46 0 -79 34t-33 79zM578 930q0 47 31.5 79.5t78.5 32.5q49 0 80 -31t31 -79q0 -49 -33 -80t-78 -31q-44 0 -77 33t-33 76z" />
<glyph unicode="&#xf8;" horiz-adv-x="1161" d="M72 477q0 144 67 260t183 181t258 65q159 0 286 -84l125 141l94 -86l-122 -139q127 -139 127 -338q0 -212 -146 -361t-364 -149q-152 0 -285 86l-121 -139l-100 84l125 141q-127 143 -127 338zM240 477q0 -124 63 -219l463 526q-79 54 -186 54q-147 0 -243.5 -102.5 t-96.5 -258.5zM395 168q78 -55 185 -55q148 0 245 104t97 260q0 125 -64 217z" />
<glyph unicode="&#xf9;" horiz-adv-x="1073" d="M125 395v557h162v-544q0 -141 60.5 -218t164.5 -77q124 0 193 84t69 245v510h162v-952h-162v113h-4q-115 -148 -285 -148q-52 0 -101.5 13.5t-97 45.5t-83 80t-57 123t-21.5 168zM303 1386l119 113l270 -307l-90 -86z" />
<glyph unicode="&#xfa;" horiz-adv-x="1073" d="M125 395v557h162v-544q0 -141 60.5 -218t164.5 -77q124 0 193 84t69 245v510h162v-952h-162v113h-4q-115 -148 -285 -148q-52 0 -101.5 13.5t-97 45.5t-83 80t-57 123t-21.5 168zM403 1192l271 307l119 -113l-299 -280z" />
<glyph unicode="&#xfb;" horiz-adv-x="1073" d="M125 395v557h162v-544q0 -141 60.5 -218t164.5 -77q124 0 193 84t69 245v510h162v-952h-162v113h-4q-115 -148 -285 -148q-52 0 -101.5 13.5t-97 45.5t-83 80t-57 123t-21.5 168zM260 1198l287 260l287 -260l-84 -92l-203 166l-203 -166z" />
<glyph unicode="&#xfc;" horiz-adv-x="1073" d="M125 395v557h162v-544q0 -141 60.5 -218t164.5 -77q124 0 193 84t69 245v510h162v-952h-162v113h-4q-115 -148 -285 -148q-52 0 -101.5 13.5t-97 45.5t-83 80t-57 123t-21.5 168zM276 1182v180h189v-180h-189zM633 1182v180h188v-180h-188z" />
<glyph unicode="&#xfd;" horiz-adv-x="860" d="M2 952h166l199 -553q49 -144 61 -196h2q9 33 64 196l196 553h166l-530 -1433h-156l178 481zM297 1192l270 307l119 -113l-299 -280z" />
<glyph unicode="&#xfe;" horiz-adv-x="1206" d="M137 -481v1958h162v-660h2q113 166 346 166q210 0 349 -143.5t139 -362.5q0 -113 -38.5 -209.5t-104 -162t-152 -102t-181.5 -36.5q-121 0 -212 45t-144 123h-4v-616h-162zM285 471q0 -156 101.5 -260.5t238.5 -104.5q83 0 149.5 32.5t107.5 86t63 118.5t22 134t-22 133 t-63 116.5t-109 84t-152 31.5q-140 0 -238 -104t-98 -267z" />
<glyph unicode="&#xff;" horiz-adv-x="860" d="M2 952h166l199 -553q49 -144 61 -196h2q9 33 64 196l196 553h166l-530 -1433h-156l178 481zM168 1182v180h188v-180h-188zM524 1182v180h189v-180h-189z" />
<glyph unicode="&#x152;" horiz-adv-x="2269" d="M78 698q0 148 55.5 284t152 237.5t236 162t297.5 60.5q339 0 541 -279v234h756v-156h-596v-440h573v-156h-573v-489h618v-156h-778v240q-211 -285 -541 -285q-124 0 -231.5 31t-187.5 85t-142.5 125.5t-101 155t-58.5 171t-20 175.5zM254 698q0 -166 74 -302t203 -213 t286 -77q154 0 280.5 77t199.5 213t73 302q0 125 -40.5 234t-112.5 188t-175.5 124.5t-224.5 45.5q-158 0 -286.5 -75.5t-202.5 -211.5t-74 -305z" />
<glyph unicode="&#x153;" horiz-adv-x="1851" d="M72 477q0 218 140.5 362t348.5 144q133 0 234 -58.5t163 -164.5q55 103 150 163t221 60q96 0 174.5 -32t129 -83t84.5 -117.5t48.5 -132t14.5 -129.5q0 -37 -4 -61h-734q0 -127 86.5 -222t212.5 -95q88 0 148.5 40t112.5 123l124 -90q-60 -102 -157 -159.5t-221 -57.5 q-139 0 -237.5 59.5t-152.5 168.5q-61 -108 -163 -168t-234 -60q-207 0 -348 147.5t-141 362.5zM240 477q0 -156 95 -260t226 -104q139 0 230.5 104t91.5 260q0 153 -89 257t-233 104q-140 0 -230.5 -102.5t-90.5 -258.5zM1044 565h566q-11 113 -89.5 195t-191.5 82 q-119 0 -195.5 -81.5t-89.5 -195.5z" />
<glyph unicode="&#x178;" horiz-adv-x="1148" d="M25 1397h188l281 -512q52 -89 81 -158h5q33 78 77 156l279 514h188l-462 -826v-571h-170v569zM317 1589v180h189v-180h-189zM674 1589v180h188v-180h-188z" />
<glyph unicode="&#x2c6;" horiz-adv-x="671" d="M49 1235l287 260l287 -260l-84 -92l-203 166l-203 -166z" />
<glyph unicode="&#x2dc;" horiz-adv-x="671" d="M8 1214q5 105 51 171.5t140 66.5q46 0 79 -16t76 -52q74 -61 123 -61q31 0 47 25t17 88h123q-5 -115 -51 -176.5t-144 -61.5q-88 0 -166 66q-42 36 -65 49.5t-43 13.5q-58 0 -64 -113h-123z" />
<glyph unicode="&#x2000;" horiz-adv-x="982" />
<glyph unicode="&#x2001;" horiz-adv-x="1964" />
<glyph unicode="&#x2002;" horiz-adv-x="982" />
<glyph unicode="&#x2003;" horiz-adv-x="1964" />
<glyph unicode="&#x2004;" horiz-adv-x="654" />
<glyph unicode="&#x2005;" horiz-adv-x="491" />
<glyph unicode="&#x2006;" horiz-adv-x="327" />
<glyph unicode="&#x2007;" horiz-adv-x="327" />
<glyph unicode="&#x2008;" horiz-adv-x="245" />
<glyph unicode="&#x2009;" horiz-adv-x="392" />
<glyph unicode="&#x200a;" horiz-adv-x="109" />
<glyph unicode="&#x2010;" horiz-adv-x="964" d="M160 459v164h659v-164h-659z" />
<glyph unicode="&#x2011;" horiz-adv-x="964" d="M160 459v164h659v-164h-659z" />
<glyph unicode="&#x2012;" horiz-adv-x="964" d="M160 459v164h659v-164h-659z" />
<glyph unicode="&#x2013;" horiz-adv-x="1114" d="M156 442v164h802v-164h-802z" />
<glyph unicode="&#x2014;" horiz-adv-x="2205" d="M156 442v164h1894v-164h-1894z" />
<glyph unicode="&#x2018;" horiz-adv-x="468" d="M133 1022v100q0 196 98 353h103q-59 -92 -70 -250h74v-203h-205z" />
<glyph unicode="&#x2019;" horiz-adv-x="468" d="M131 1272v203h205v-101q0 -195 -98 -352h-103q59 92 70 250h-74z" />
<glyph unicode="&#x201a;" horiz-adv-x="468" d="M131 0v203h205v-101q0 -195 -98 -352h-103q59 92 70 250h-74z" />
<glyph unicode="&#x201c;" horiz-adv-x="788" d="M133 1022v100q0 196 98 353h103q-59 -92 -70 -250h74v-203h-205zM453 1022v100q0 196 98 353h102q-58 -90 -69 -250h73v-203h-204z" />
<glyph unicode="&#x201d;" horiz-adv-x="788" d="M131 1272v203h205v-101q0 -195 -98 -352h-103q59 92 70 250h-74zM451 1272v203h204v-101q0 -195 -98 -352h-102q58 90 69 250h-73z" />
<glyph unicode="&#x201e;" horiz-adv-x="788" d="M131 0v203h205v-101q0 -195 -98 -352h-103q59 92 70 250h-74zM451 0v203h204v-101q0 -195 -98 -352h-102q58 90 69 250h-73z" />
<glyph unicode="&#x2022;" horiz-adv-x="770" d="M135 604q0 103 73.5 176.5t174.5 73.5q103 0 177.5 -73.5t74.5 -176.5t-74.5 -176.5t-177.5 -73.5q-101 0 -174.5 73.5t-73.5 176.5z" />
<glyph unicode="&#x2026;" horiz-adv-x="2068" d="M240 0v225h225v-225h-225zM922 0v225h225v-225h-225zM1604 0v225h225v-225h-225z" />
<glyph unicode="&#x202f;" horiz-adv-x="392" />
<glyph unicode="&#x2039;" horiz-adv-x="587" d="M119 496l250 403l110 -59l-178 -344l178 -344l-110 -64z" />
<glyph unicode="&#x203a;" horiz-adv-x="587" d="M109 150l178 344l-178 344l110 61l250 -405l-250 -406z" />
<glyph unicode="&#x205f;" horiz-adv-x="491" />
<glyph unicode="&#x20ac;" d="M43 475l41 135h115q-2 27 -2 88q0 51 8 121h-139l40 137h121q62 226 222 356t387 130q129 0 249 -45l-38 -144q-93 39 -218 39q-88 0 -168 -33.5t-149.5 -111.5t-103.5 -191h561l-41 -137h-549q-6 -52 -6 -119q0 -36 4 -90h502l-41 -135h-437q46 -170 161.5 -269.5 t287.5 -99.5q111 0 209 52l51 -148q-121 -55 -274 -55q-105 0 -195.5 26.5t-158 72.5t-120 112t-87 143t-54.5 166h-178z" />
<glyph unicode="&#x2122;" horiz-adv-x="1191" d="M137 1303v94h324v-94h-113v-340h-102v340h-109zM467 963l39 434h139l72 -217q17 -53 20 -72q8 35 24 84t37.5 110.5t32.5 94.5h140l35 -434h-105l-12 239q-2 47 -2 101h-6q-1 -5 -8 -39t-15 -62l-78 -239h-90l-69 225q-8 26 -13.5 49t-9.5 41t-6 25h-4q0 -60 -2 -107 l-15 -233h-104z" />
<glyph unicode="&#xe000;" horiz-adv-x="952" d="M0 0v952h952v-952h-952z" />
</font>
</defs>
</svg>
