<?xml version="1.0" encoding="UTF-8" standalone="no"?>
<svg width="131px" height="161px" viewBox="0 0 131 161" version="1.1" xmlns="http://www.w3.org/2000/svg" xmlns:xlink="http://www.w3.org/1999/xlink" xmlns:sketch="http://www.bohemiancoding.com/sketch/ns">
    <!-- Generator: Sketch 3.3 (11970) - http://www.bohemiancoding.com/sketch -->
    <title>Shape</title>
    <desc>Created with Sketch.</desc>
    <defs></defs>
    <g id="Page-1" stroke="none" stroke-width="1" fill="none" fill-rule="evenodd" sketch:type="MSPage">
        <g id="apple_logo" sketch:type="MSLayerGroup" fill="#000000" opacity="0.75">
            <g id="Page-1" sketch:type="MSShapeGroup">
                <g id="Layer-1">
                    <g id="svg_1">
                        <path d="M108.8,85 C109,109.2 130,117.3 130.3,117.4 C130.1,118 126.9,128.9 119.2,140.2 C112.5,149.9 105.6,159.7 94.7,159.9 C84,160.1 80.5,153.5 68.3,153.5 C56.1,153.5 52.2,159.7 42.1,160.1 C31.6,160.5 23.6,149.6 16.8,139.8 C3.1,119.9 -7.4,83.6 6.7,59.1 C13.7,46.9 26.2,39.2 39.8,39 C50.1,38.8 59.9,46 66.2,46 C72.5,46 84.4,37.4 96.8,38.7 C102,38.9 116.7,40.8 126.1,54.6 C125.3,55 108.6,64.8 108.8,85 M88.7,25.5 C94.3,18.8 98,9.4 97,0 C88.9,0.3 79.2,5.4 73.4,12.1 C68.2,18.1 63.7,27.7 64.9,36.8 C73.9,37.6 83.1,32.3 88.7,25.5" id="Shape"></path>
                    </g>
                </g>
            </g>
        </g>
    </g>
</svg>