<?xml version="1.0" encoding="UTF-8" standalone="no"?>
<svg width="131px" height="138px" viewBox="0 0 131 138" version="1.1" xmlns="http://www.w3.org/2000/svg" xmlns:xlink="http://www.w3.org/1999/xlink" xmlns:sketch="http://www.bohemiancoding.com/sketch/ns">
    <!-- Generator: Sketch 3.3 (11970) - http://www.bohemiancoding.com/sketch -->
    <title>Shape</title>
    <desc>Created with Sketch.</desc>
    <defs></defs>
    <g id="Page-1" stroke="none" stroke-width="1" fill="none" fill-rule="evenodd" sketch:type="MSPage">
        <g id="backend" sketch:type="MSLayerGroup" fill="#000000" opacity="0.75">
            <path d="M128,86.3 L120.6,82.1 C118.5,80.9 117.4,78.5 117.8,76.1 C118.5,71.2 118.5,66.3 117.7,61.1 C117.3,58.7 118.3,56.3 120.4,55.1 L127.7,50.8 C130.4,49.2 131.4,45.7 129.8,42.9 L119.6,25.6 C118,22.8 114.4,21.9 111.6,23.6 L104.7,27.8 C102.7,29 100.2,28.8 98.3,27.4 C94.2,24.3 89.3,21.8 85.3,19.9 C83.3,19 82.1,17 82,14.8 L81.9,6 C81.9,2.8 79.3,0.3 76.1,0.3 L55.9,0.4 C52.7,0.4 50.2,3 50.2,6.2 L50.3,14.3 C50.3,16.8 48.8,19 46.5,19.8 C40.3,21.7 36.7,24.4 33,27.7 C31.2,29.3 28.5,29.6 26.4,28.4 L18.7,24.1 C15.9,22.6 12.5,23.5 10.9,26.3 L0.8,43.9 C-0.8,46.7 0.2,50.2 2.9,51.8 L10.2,56 C12.3,57.2 13.3,59.6 13,62 C12.3,66.9 12.3,71.8 13.1,77 C13.5,79.4 12.5,81.8 10.4,83 L3,87.3 C0.3,88.9 -0.7,92.4 0.9,95.2 L11.1,112.7 C12.7,115.4 16.2,116.4 18.9,114.8 L26.8,110.3 C28.9,109.1 31.6,109.4 33.4,111 C37.1,114.2 40.8,116.8 47,118.7 C49.4,119.4 50.9,121.7 50.9,124.1 L51,132.2 C51,135.4 53.6,137.9 56.8,137.9 L77,137.8 C80.2,137.8 82.7,135.2 82.7,132 L83,123 C83,120.8 84.2,118.8 86.2,117.8 C90.2,115.9 95,113.3 99.1,110.1 C101,108.7 103.4,108.4 105.5,109.6 L112.4,113.7 C115.2,115.3 118.8,114.4 120.4,111.6 L130.3,94.2 C131.7,91.4 130.8,87.9 128,86.3 L128,86.3 Z M65.6,90.2 C53.9,90.3 44.4,80.9 44.3,69.2 C44.2,57.5 53.6,48 65.3,47.9 C77,47.8 86.5,57.2 86.6,68.9 C86.7,80.5 77.3,90.1 65.6,90.2 L65.6,90.2 Z" id="Shape" sketch:type="MSShapeGroup"></path>
        </g>
    </g>
</svg>