<?xml version="1.0" encoding="UTF-8" standalone="no"?>
<svg width="784px" height="912px" viewBox="0 0 784 912" version="1.1" xmlns="http://www.w3.org/2000/svg" xmlns:xlink="http://www.w3.org/1999/xlink" xmlns:sketch="http://www.bohemiancoding.com/sketch/ns">
    <!-- Generator: Sketch 3.3 (11970) - http://www.bohemiancoding.com/sketch -->
    <title>Shape</title>
    <desc>Created with Sketch.</desc>
    <defs></defs>
    <g id="Page-1" stroke="none" stroke-width="1" fill="none" fill-rule="evenodd" sketch:type="MSPage">
        <g id="bugdroid_logo" sketch:type="MSLayerGroup" fill="#020202" opacity="0.75">
            <path d="M228.3,14.5 C223.9,8.7 229.7,-0.7 236.9,0.6 C239.5,0.3 241,2.6 242.4,4.4 C257.9,26.6 273.3,48.9 288.9,71.1 C321.8,58.8 356.9,52.3 392,53 C411.8,54.2 431.6,56.8 451,60.9 C465.5,64.4 480.3,67 494.5,71.5 C510.9,48.8 526.5,25.5 542.8,2.7 C546,-0.7 551.6,0.5 554.9,3.1 C557.8,6.5 558.2,12.3 554.8,15.5 C540.2,36.5 525.7,57.6 511.4,78.7 C528.6,88.9 545.3,99.9 561.3,111.9 C588.7,133.2 611.7,160.9 624.9,193.1 C632.8,212.3 637.3,232.9 638.2,253.7 C473.6,253.5 308.9,253.8 144.3,253.6 C146.4,221.5 156.3,189.8 174.1,162.9 C190.7,138 212.2,116.4 237,99.7 C248.3,91.9 260.6,85.5 272.3,78.4 C257.5,57.3 243,35.8 228.3,14.5 Z M279.5,130.7 C294.4,126.7 310.6,138.9 311.5,154.1 C313.2,168.2 301.2,182.1 287,182.7 C273,184.1 259.2,172.3 259,158.1 C257.8,145.4 267.1,133.1 279.5,130.7 Z M490.5,130.7 C505.4,126 522.1,137.7 523.9,152.9 C526.3,168 513,182.8 497.9,183 C484.6,183.4 472.3,172.3 471.2,159 C469.8,146.6 478.5,134 490.5,130.7 Z M47.6,286.8 C59.1,285.3 71.4,286.5 81.7,292.1 C99,301 111.5,319.3 112,339 L112,569.1 C111.1,597.6 84.6,622.7 56,621.5 C27.1,622.5 0.5,596.9 0.3,567.9 C0.2,497.2 0.3,426.6 0.3,355.9 C0.4,346.2 -0.5,336.3 2.2,326.9 C7.6,306.1 26.3,289.7 47.6,286.8 Z M143.8,286.2 C309,286.2 474.2,286.3 639.4,286.2 C639.6,419.1 639.4,552.1 639.5,685 C639.6,692.1 638.8,699.3 636.1,705.9 C630.9,718.7 619.5,728.9 606,732 C599.5,734.3 592.6,733.4 585.9,733.5 C573.1,733.6 560.4,733.3 547.6,733.6 C547.7,774.7 547.6,815.8 547.7,857 C548.3,883.1 527.7,908.2 501.7,912 L480.3,912 C466.3,908.8 453.7,900.2 445.4,888.5 C438.6,878.8 435.4,866.8 435.7,855 C435.8,814.5 435.6,774 435.8,733.6 C406.4,733.4 377,733.6 347.5,733.5 C347.3,776 347.6,818.5 347.4,861 C346.8,885.4 327.2,906.9 303.7,912 L280.2,912 C254.2,907.3 234,881.5 235.6,855.1 C236,814.6 235.3,774 235.4,733.5 L193.9,733.5 C188.1,733.4 182.2,734 176.6,732.1 C161.5,727.9 149.3,715.3 145.4,700.2 C143.1,692.4 143.8,684.1 143.7,676.1 C143.8,546.1 143.7,416.2 143.8,286.2 Z M717.7,286.8 C729.3,285.2 741.5,286.5 752.1,291.8 C769.4,300.4 782.2,318.4 783.1,337.9 L783.1,561.9 C783,566.3 783.4,570.7 782.6,575.1 C780,591.4 769.2,605.8 755.2,614.2 C743.1,621.5 728.3,623.1 714.7,620.3 C689.8,615.1 670.2,590.6 671.4,565 L671.4,339 C671.9,313.6 692.5,290.4 717.7,286.8 Z" id="Shape" sketch:type="MSShapeGroup"></path>
        </g>
    </g>
</svg>