<?xml version="1.0" encoding="UTF-8" standalone="no"?>
<svg width="311px" height="109px" viewBox="0 0 311 109" version="1.1" xmlns="http://www.w3.org/2000/svg" xmlns:xlink="http://www.w3.org/1999/xlink" xmlns:sketch="http://www.bohemiancoding.com/sketch/ns">
    <!-- Generator: Sketch 3.3 (11970) - http://www.bohemiancoding.com/sketch -->
    <title>logo</title>
    <desc>Created with Sketch.</desc>
    <defs></defs>
    <g id="Page-1" stroke="none" stroke-width="1" fill="none" fill-rule="evenodd" sketch:type="MSPage">
        <g id="logo" sketch:type="MSLayerGroup" fill="#009CDE">
            <g id="Group" sketch:type="MSShapeGroup">
                <g id="Shape" transform="translate(135.000000, 20.000000)">
                    <path d="M0.8,15.1 C0.8,5.9 5.3,0.2 11.6,0.2 C17.9,0.2 22.4,6 22.4,15.1 C22.4,24.3 17.9,30.3 11.6,30.3 C5.3,30.3 0.8,24.3 0.8,15.1 L0.8,15.1 L0.8,15.1 Z M20.4,15.1 C20.4,7.1 16.9,2 11.7,2 C6.5,2 3,7.1 3,15.1 C3,23.2 6.5,28.4 11.7,28.4 C16.9,28.4 20.4,23.2 20.4,15.1 L20.4,15.1 L20.4,15.1 Z"></path>
                    <path d="M34.5,0.7 L42.4,0.7 C48.9,0.7 52.8,2.8 52.8,8.8 C52.8,14.5 48.9,17.3 42.4,17.3 L36.5,17.3 L36.5,29.8 L34.5,29.8 L34.5,0.7 L34.5,0.7 Z M41.9,15.6 C47.8,15.6 50.7,13.6 50.7,8.9 C50.7,4 47.8,2.5 41.9,2.5 L36.5,2.5 L36.5,15.6 L41.9,15.6 L41.9,15.6 Z"></path>
                    <path d="M65.8,0.7 L83,0.7 L83,2.5 L67.8,2.5 L67.8,13.5 L80.6,13.5 L80.6,15.3 L67.8,15.3 L67.8,28 L83.4,28 L83.4,29.8 L65.8,29.8 L65.8,0.7 L65.8,0.7 Z"></path>
                    <path d="M95.1,0.7 L97.2,0.7 L108.5,21.2 L111.6,26.9 L111.7,26.9 C111.6,24.1 111.4,21.3 111.4,18.5 L111.4,0.7 L113.3,0.7 L113.3,29.7 L111.2,29.7 L99.9,9.2 L96.8,3.5 L96.7,3.5 C96.8,6.3 97,9 97,11.8 L97,29.8 L95.1,29.8 L95.1,0.7 L95.1,0.7 Z"></path>
                    <path d="M3.1,65.9 C5.3,68.3 8.5,69.8 12,69.8 C16.7,69.8 19.7,67.4 19.7,64 C19.7,60.4 17.1,59.2 14,57.9 L9.6,55.9 C6.9,54.8 3.3,53 3.3,48.7 C3.3,44.5 7.1,41.6 12.2,41.6 C15.9,41.6 18.9,43.2 20.7,45.1 L19.5,46.5 C17.7,44.7 15.2,43.5 12.1,43.5 C8,43.5 5.3,45.5 5.3,48.7 C5.3,52 8.5,53.3 10.8,54.3 L15.2,56.2 C18.7,57.7 21.8,59.5 21.8,63.9 C21.8,68.4 18,71.7 12.1,71.7 C7.6,71.7 4.2,69.9 1.8,67.3 L3.1,65.9 L3.1,65.9 Z"></path>
                    <path d="M31.7,56.5 C31.7,47.3 36.2,41.6 42.5,41.6 C48.8,41.6 53.3,47.4 53.3,56.5 C53.3,65.7 48.8,71.7 42.5,71.7 C36.2,71.7 31.7,65.7 31.7,56.5 L31.7,56.5 L31.7,56.5 Z M51.3,56.5 C51.3,48.5 47.8,43.4 42.6,43.4 C37.4,43.4 33.9,48.5 33.9,56.5 C33.9,64.6 37.4,69.8 42.6,69.8 C47.7,69.8 51.3,64.6 51.3,56.5 L51.3,56.5 L51.3,56.5 Z"></path>
                    <path d="M64.1,42.1 L66.1,42.1 L66.1,60 C66.1,67.5 69.5,69.8 73.4,69.8 C77.4,69.8 80.8,67.5 80.8,60 L80.8,42.1 L82.7,42.1 L82.7,60.3 C82.7,69.1 78.3,71.7 73.4,71.7 C68.6,71.7 64.1,69.1 64.1,60.3 L64.1,42.1 L64.1,42.1 Z"></path>
                    <path d="M112.2,71.2 L104.4,57.8 L98.2,57.8 L98.2,71.2 L96.2,71.2 L96.2,42.2 L104.5,42.2 C110.3,42.2 114.1,44.3 114.1,49.9 C114.1,54.5 111.2,57.2 106.7,57.8 L114.7,71.3 L112.2,71.3 L112.2,71.2 L112.2,71.2 Z M103.9,56.1 C109.1,56.1 111.9,54 111.9,49.8 C111.9,45.4 109,43.9 103.9,43.9 L98.2,43.9 L98.2,56.2 L103.9,56.2 L103.9,56.1 L103.9,56.1 Z"></path>
                    <path d="M137.5,41.6 C140.8,41.6 143.4,43.3 145,45.1 L143.8,46.4 C142.3,44.6 140.1,43.4 137.5,43.4 C131.1,43.4 127.1,48.5 127.1,56.5 C127.1,64.5 131.1,69.8 137.3,69.8 C140.3,69.8 142.5,68.6 144.6,66.2 L145.8,67.5 C143.6,70.1 141,71.6 137.2,71.6 C130,71.6 125,65.7 125,56.5 C125,47.4 130,41.6 137.5,41.6 L137.5,41.6 L137.5,41.6 Z"></path>
                    <path d="M158.3,42.1 L175.5,42.1 L175.5,43.9 L160.3,43.9 L160.3,54.9 L173.1,54.9 L173.1,56.7 L160.3,56.7 L160.3,69.5 L175.9,69.5 L175.9,71.3 L158.3,71.3 L158.3,42.1 L158.3,42.1 Z"></path>
                </g>
                <g id="Shape" transform="translate(0.000000, 21.000000)">
                    <path d="M1.8,12.3 L9.5,12.3 L11.3,3.9 L22.7,0.2 L20.1,12.3 L29.6,12.3 L27.9,20 L18.4,20 L14.5,37.8 C14.3,38.8 14,40.2 14,41.8 C14,44.3 15.7,45.8 18.1,45.8 C20,45.8 21.9,45.4 23.2,44.9 L21.4,53.1 C19.6,53.5 17.5,54.1 15.7,54.1 C8.5,54.1 3.4,51.3 3.4,43.4 C3.4,40.2 4,37.1 4.7,33.9 L7.7,20.1 L0,20.1 L1.8,12.3 L1.8,12.3 Z"></path>
                    <path d="M34.3,17.6 C34.6,16 34.9,14.4 35.2,13.1 L45,13.1 L44,18.6 L44.2,18.6 C47.1,14.4 51.7,12.2 56.7,12.2 C61.5,12.2 66.5,15.1 67.1,20 L67.3,20 C70,14.7 75.9,12.2 81.6,12.2 C87.7,12.2 92.9,17.2 92.9,23.4 C92.9,27 92,31.1 91.1,34.5 L86.8,54 L76.2,54 L80.5,34.1 C81,31.6 81.8,27.8 81.8,25.4 C81.8,22.4 79.5,20.5 76.8,20.5 C69.4,20.5 67.6,29.1 66.3,34.6 L62.1,54 L51.5,54 L55.8,34.1 C56.4,31.6 57.2,27.8 57.2,25.4 C57.2,22.4 54.9,20.5 52.2,20.5 C45,20.5 43,29.1 41.7,34.6 L37.5,54 L26.8,54 L34.3,17.6 L34.3,17.6 Z"></path>
                </g>
                <path d="M96.9,108.9 L99.2,108.9 L123.7,0.5 L121.3,0.5 L96.9,108.9 L96.9,108.9 Z" id="Shape"></path>
            </g>
        </g>
    </g>
</svg>