<?xml version="1.0" encoding="UTF-8" standalone="no"?>
<svg width="165px" height="111px" viewBox="0 0 165 111" version="1.1" xmlns="http://www.w3.org/2000/svg" xmlns:xlink="http://www.w3.org/1999/xlink" xmlns:sketch="http://www.bohemiancoding.com/sketch/ns">
    <!-- Generator: Sketch 3.3 (11970) - http://www.bohemiancoding.com/sketch -->
    <title>Shape</title>
    <desc>Created with Sketch.</desc>
    <defs></defs>
    <g id="Page-1" stroke="none" stroke-width="1" fill="none" fill-rule="evenodd" sketch:type="MSPage">
        <g id="web" sketch:type="MSLayerGroup" fill="#000000" opacity="0.75">
            <g id="Group" sketch:type="MSShapeGroup">
                <path d="M0.7,31 L0.7,103.9 C0.7,108 4.2,111 8.3,111 L157.8,111 C161.9,111 164.7,108 164.7,103.9 L164.7,31 L0.7,31 Z M157.7,0 L8.3,0 C4.2,0 0.7,3 0.7,7.1 L0.7,26 L164.7,26 L164.7,7.1 C164.7,3 161.8,0 157.7,0 Z M15.7,18 C13,18 10.9,15.8 10.9,13.2 C10.9,10.6 13.1,8.4 15.7,8.4 C18.3,8.4 20.5,10.6 20.5,13.2 C20.5,15.8 18.3,18 15.7,18 L15.7,18 Z M31.8,18 C29.1,18 27,15.8 27,13.2 C27,10.6 29.2,8.4 31.8,8.4 C34.4,8.4 36.6,10.6 36.6,13.2 C36.6,15.8 34.5,18 31.8,18 L31.8,18 Z M48,18 C45.3,18 43.2,15.8 43.2,13.2 C43.2,10.6 45.4,8.4 48,8.4 C50.6,8.4 52.8,10.6 52.8,13.2 C52.8,15.8 50.7,18 48,18 L48,18 Z" id="Shape"></path>
            </g>
        </g>
    </g>
</svg>